<svg width="173" height="21" viewBox="0 0 173 21" fill="none" xmlns="http://www.w3.org/2000/svg">
<path d="M11.0118 20.168C9.53712 20.168 8.17445 19.9253 6.92379 19.44C5.67312 18.936 4.59045 18.236 3.67579 17.34C2.76112 16.444 2.04245 15.3893 1.51979 14.176C1.01579 12.9627 0.763785 11.6373 0.763785 10.2C0.763785 8.76267 1.01579 7.43733 1.51979 6.224C2.04245 5.01067 2.76112 3.956 3.67579 3.06C4.60912 2.164 5.70112 1.47333 6.95179 0.987999C8.20245 0.483999 9.56512 0.231999 11.0398 0.231999C12.4585 0.231999 13.7931 0.474666 15.0438 0.96C16.2945 1.42667 17.3491 2.136 18.2078 3.088L16.8918 4.404C16.0891 3.58267 15.2025 2.99467 14.2318 2.64C13.2611 2.26667 12.2158 2.08 11.0958 2.08C9.91979 2.08 8.82779 2.28533 7.81979 2.696C6.81179 3.088 5.93445 3.65733 5.18779 4.404C4.44112 5.132 3.85312 5.99067 3.42379 6.98C3.01312 7.95067 2.80779 9.024 2.80779 10.2C2.80779 11.376 3.01312 12.4587 3.42379 13.448C3.85312 14.4187 4.44112 15.2773 5.18779 16.024C5.93445 16.752 6.81179 17.3213 7.81979 17.732C8.82779 18.124 9.91979 18.32 11.0958 18.32C12.2158 18.32 13.2611 18.1333 14.2318 17.76C15.2025 17.3867 16.0891 16.7893 16.8918 15.968L18.2078 17.284C17.3491 18.236 16.2945 18.9547 15.0438 19.44C13.7931 19.9253 12.4491 20.168 11.0118 20.168ZM30.3746 20.168C28.9 20.168 27.528 19.9253 26.2586 19.44C25.008 18.936 23.916 18.236 22.9826 17.34C22.068 16.4253 21.3493 15.3707 20.8266 14.176C20.3226 12.9627 20.0706 11.6373 20.0706 10.2C20.0706 8.76267 20.3226 7.44667 20.8266 6.252C21.3493 5.03867 22.068 3.984 22.9826 3.088C23.916 2.17333 25.008 1.47333 26.2586 0.987999C27.5093 0.483999 28.8813 0.231999 30.3746 0.231999C31.8493 0.231999 33.212 0.483999 34.4626 0.987999C35.7133 1.47333 36.796 2.164 37.7106 3.06C38.644 3.956 39.3626 5.01067 39.8666 6.224C40.3893 7.43733 40.6506 8.76267 40.6506 10.2C40.6506 11.6373 40.3893 12.9627 39.8666 14.176C39.3626 15.3893 38.644 16.444 37.7106 17.34C36.796 18.236 35.7133 18.936 34.4626 19.44C33.212 19.9253 31.8493 20.168 30.3746 20.168ZM30.3746 18.32C31.5506 18.32 32.6333 18.124 33.6226 17.732C34.6306 17.3213 35.4986 16.752 36.2266 16.024C36.9733 15.2773 37.552 14.4187 37.9626 13.448C38.3733 12.4587 38.5786 11.376 38.5786 10.2C38.5786 9.024 38.3733 7.95067 37.9626 6.98C37.552 5.99067 36.9733 5.132 36.2266 4.404C35.4986 3.65733 34.6306 3.088 33.6226 2.696C32.6333 2.28533 31.5506 2.08 30.3746 2.08C29.1986 2.08 28.1066 2.28533 27.0986 2.696C26.0906 3.088 25.2133 3.65733 24.4666 4.404C23.7386 5.132 23.16 5.99067 22.7306 6.98C22.32 7.95067 22.1146 9.024 22.1146 10.2C22.1146 11.3573 22.32 12.4307 22.7306 13.42C23.16 14.4093 23.7386 15.2773 24.4666 16.024C25.2133 16.752 26.0906 17.3213 27.0986 17.732C28.1066 18.124 29.1986 18.32 30.3746 18.32ZM44.8869 20V0.399999H46.5949L60.1189 17.424H59.2229V0.399999H61.2669V20H59.5589L46.0629 2.976H46.9589V20H44.8869ZM67.2563 20V0.399999H68.9643L82.4883 17.424H81.5923V0.399999H83.6363V20H81.9283L68.4323 2.976H69.3283V20H67.2563ZM91.4736 9.164H101.834V10.928H91.4736V9.164ZM91.6976 18.208H103.486V20H89.6256V0.399999H103.066V2.192H91.6976V18.208ZM104.986 20L113.022 9.136V10.732L105.462 0.399999H107.842L114.198 9.024L113.274 9.052L119.63 0.399999H121.87L114.394 10.592V9.136L122.402 20H119.994L113.218 10.788H114.086L107.366 20H104.986ZM124.985 20V0.399999H127.057V20H124.985ZM141.595 20.168C140.12 20.168 138.748 19.9253 137.479 19.44C136.228 18.936 135.136 18.236 134.203 17.34C133.288 16.4253 132.569 15.3707 132.047 14.176C131.543 12.9627 131.291 11.6373 131.291 10.2C131.291 8.76267 131.543 7.44667 132.047 6.252C132.569 5.03867 133.288 3.984 134.203 3.088C135.136 2.17333 136.228 1.47333 137.479 0.987999C138.729 0.483999 140.101 0.231999 141.595 0.231999C143.069 0.231999 144.432 0.483999 145.683 0.987999C146.933 1.47333 148.016 2.164 148.931 3.06C149.864 3.956 150.583 5.01067 151.087 6.224C151.609 7.43733 151.871 8.76267 151.871 10.2C151.871 11.6373 151.609 12.9627 151.087 14.176C150.583 15.3893 149.864 16.444 148.931 17.34C148.016 18.236 146.933 18.936 145.683 19.44C144.432 19.9253 143.069 20.168 141.595 20.168ZM141.595 18.32C142.771 18.32 143.853 18.124 144.843 17.732C145.851 17.3213 146.719 16.752 147.447 16.024C148.193 15.2773 148.772 14.4187 149.183 13.448C149.593 12.4587 149.799 11.376 149.799 10.2C149.799 9.024 149.593 7.95067 149.183 6.98C148.772 5.99067 148.193 5.132 147.447 4.404C146.719 3.65733 145.851 3.088 144.843 2.696C143.853 2.28533 142.771 2.08 141.595 2.08C140.419 2.08 139.327 2.28533 138.319 2.696C137.311 3.088 136.433 3.65733 135.687 4.404C134.959 5.132 134.38 5.99067 133.951 6.98C133.54 7.95067 133.335 9.024 133.335 10.2C133.335 11.3573 133.54 12.4307 133.951 13.42C134.38 14.4093 134.959 15.2773 135.687 16.024C136.433 16.752 137.311 17.3213 138.319 17.732C139.327 18.124 140.419 18.32 141.595 18.32ZM156.107 20V0.399999H157.815L171.339 17.424H170.443V0.399999H172.487V20H170.779L157.283 2.976H158.179V20H156.107Z" fill="url(#paint0_linear_525_4699)"/>
<path d="M11.0118 20.168C9.53712 20.168 8.17445 19.9253 6.92379 19.44C5.67312 18.936 4.59045 18.236 3.67579 17.34C2.76112 16.444 2.04245 15.3893 1.51979 14.176C1.01579 12.9627 0.763785 11.6373 0.763785 10.2C0.763785 8.76267 1.01579 7.43733 1.51979 6.224C2.04245 5.01067 2.76112 3.956 3.67579 3.06C4.60912 2.164 5.70112 1.47333 6.95179 0.987999C8.20245 0.483999 9.56512 0.231999 11.0398 0.231999C12.4585 0.231999 13.7931 0.474666 15.0438 0.96C16.2945 1.42667 17.3491 2.136 18.2078 3.088L16.8918 4.404C16.0891 3.58267 15.2025 2.99467 14.2318 2.64C13.2611 2.26667 12.2158 2.08 11.0958 2.08C9.91979 2.08 8.82779 2.28533 7.81979 2.696C6.81179 3.088 5.93445 3.65733 5.18779 4.404C4.44112 5.132 3.85312 5.99067 3.42379 6.98C3.01312 7.95067 2.80779 9.024 2.80779 10.2C2.80779 11.376 3.01312 12.4587 3.42379 13.448C3.85312 14.4187 4.44112 15.2773 5.18779 16.024C5.93445 16.752 6.81179 17.3213 7.81979 17.732C8.82779 18.124 9.91979 18.32 11.0958 18.32C12.2158 18.32 13.2611 18.1333 14.2318 17.76C15.2025 17.3867 16.0891 16.7893 16.8918 15.968L18.2078 17.284C17.3491 18.236 16.2945 18.9547 15.0438 19.44C13.7931 19.9253 12.4491 20.168 11.0118 20.168ZM30.3746 20.168C28.9 20.168 27.528 19.9253 26.2586 19.44C25.008 18.936 23.916 18.236 22.9826 17.34C22.068 16.4253 21.3493 15.3707 20.8266 14.176C20.3226 12.9627 20.0706 11.6373 20.0706 10.2C20.0706 8.76267 20.3226 7.44667 20.8266 6.252C21.3493 5.03867 22.068 3.984 22.9826 3.088C23.916 2.17333 25.008 1.47333 26.2586 0.987999C27.5093 0.483999 28.8813 0.231999 30.3746 0.231999C31.8493 0.231999 33.212 0.483999 34.4626 0.987999C35.7133 1.47333 36.796 2.164 37.7106 3.06C38.644 3.956 39.3626 5.01067 39.8666 6.224C40.3893 7.43733 40.6506 8.76267 40.6506 10.2C40.6506 11.6373 40.3893 12.9627 39.8666 14.176C39.3626 15.3893 38.644 16.444 37.7106 17.34C36.796 18.236 35.7133 18.936 34.4626 19.44C33.212 19.9253 31.8493 20.168 30.3746 20.168ZM30.3746 18.32C31.5506 18.32 32.6333 18.124 33.6226 17.732C34.6306 17.3213 35.4986 16.752 36.2266 16.024C36.9733 15.2773 37.552 14.4187 37.9626 13.448C38.3733 12.4587 38.5786 11.376 38.5786 10.2C38.5786 9.024 38.3733 7.95067 37.9626 6.98C37.552 5.99067 36.9733 5.132 36.2266 4.404C35.4986 3.65733 34.6306 3.088 33.6226 2.696C32.6333 2.28533 31.5506 2.08 30.3746 2.08C29.1986 2.08 28.1066 2.28533 27.0986 2.696C26.0906 3.088 25.2133 3.65733 24.4666 4.404C23.7386 5.132 23.16 5.99067 22.7306 6.98C22.32 7.95067 22.1146 9.024 22.1146 10.2C22.1146 11.3573 22.32 12.4307 22.7306 13.42C23.16 14.4093 23.7386 15.2773 24.4666 16.024C25.2133 16.752 26.0906 17.3213 27.0986 17.732C28.1066 18.124 29.1986 18.32 30.3746 18.32ZM44.8869 20V0.399999H46.5949L60.1189 17.424H59.2229V0.399999H61.2669V20H59.5589L46.0629 2.976H46.9589V20H44.8869ZM67.2563 20V0.399999H68.9643L82.4883 17.424H81.5923V0.399999H83.6363V20H81.9283L68.4323 2.976H69.3283V20H67.2563ZM91.4736 9.164H101.834V10.928H91.4736V9.164ZM91.6976 18.208H103.486V20H89.6256V0.399999H103.066V2.192H91.6976V18.208ZM104.986 20L113.022 9.136V10.732L105.462 0.399999H107.842L114.198 9.024L113.274 9.052L119.63 0.399999H121.87L114.394 10.592V9.136L122.402 20H119.994L113.218 10.788H114.086L107.366 20H104.986ZM124.985 20V0.399999H127.057V20H124.985ZM141.595 20.168C140.12 20.168 138.748 19.9253 137.479 19.44C136.228 18.936 135.136 18.236 134.203 17.34C133.288 16.4253 132.569 15.3707 132.047 14.176C131.543 12.9627 131.291 11.6373 131.291 10.2C131.291 8.76267 131.543 7.44667 132.047 6.252C132.569 5.03867 133.288 3.984 134.203 3.088C135.136 2.17333 136.228 1.47333 137.479 0.987999C138.729 0.483999 140.101 0.231999 141.595 0.231999C143.069 0.231999 144.432 0.483999 145.683 0.987999C146.933 1.47333 148.016 2.164 148.931 3.06C149.864 3.956 150.583 5.01067 151.087 6.224C151.609 7.43733 151.871 8.76267 151.871 10.2C151.871 11.6373 151.609 12.9627 151.087 14.176C150.583 15.3893 149.864 16.444 148.931 17.34C148.016 18.236 146.933 18.936 145.683 19.44C144.432 19.9253 143.069 20.168 141.595 20.168ZM141.595 18.32C142.771 18.32 143.853 18.124 144.843 17.732C145.851 17.3213 146.719 16.752 147.447 16.024C148.193 15.2773 148.772 14.4187 149.183 13.448C149.593 12.4587 149.799 11.376 149.799 10.2C149.799 9.024 149.593 7.95067 149.183 6.98C148.772 5.99067 148.193 5.132 147.447 4.404C146.719 3.65733 145.851 3.088 144.843 2.696C143.853 2.28533 142.771 2.08 141.595 2.08C140.419 2.08 139.327 2.28533 138.319 2.696C137.311 3.088 136.433 3.65733 135.687 4.404C134.959 5.132 134.38 5.99067 133.951 6.98C133.54 7.95067 133.335 9.024 133.335 10.2C133.335 11.3573 133.54 12.4307 133.951 13.42C134.38 14.4093 134.959 15.2773 135.687 16.024C136.433 16.752 137.311 17.3213 138.319 17.732C139.327 18.124 140.419 18.32 141.595 18.32ZM156.107 20V0.399999H157.815L171.339 17.424H170.443V0.399999H172.487V20H170.779L157.283 2.976H158.179V20H156.107Z" fill="url(#paint1_linear_525_4699)"/>
<path d="M6.92379 19.44L6.54998 20.3676L6.56201 20.3723L6.92379 19.44ZM3.67579 17.34L2.97601 18.0544L3.67579 17.34ZM1.51978 14.176L0.59621 14.5596L0.601373 14.5716L1.51978 14.176ZM1.51978 6.224L0.601295 5.82834L0.596289 5.84039L1.51978 6.224ZM3.67579 3.06L2.98322 2.33858L2.97601 2.34564L3.67579 3.06ZM6.95179 0.987999L7.31359 1.92034L7.32556 1.91552L6.95179 0.987999ZM15.0438 0.96L14.682 1.89234L14.6942 1.8969L15.0438 0.96ZM18.2078 3.088L18.9149 3.79511L19.5865 3.12351L18.9504 2.41823L18.2078 3.088ZM16.8918 4.404L16.1766 5.10293L16.8836 5.82639L17.5989 5.11111L16.8918 4.404ZM14.2318 2.64L13.8728 3.57335L13.8807 3.57637L13.8886 3.57926L14.2318 2.64ZM7.81979 2.696L8.18223 3.628L8.18968 3.62511L8.19708 3.62209L7.81979 2.696ZM5.18779 4.404L5.88594 5.12006L5.89489 5.11111L5.18779 4.404ZM3.42379 6.98L2.5064 6.58189L2.50282 6.59036L3.42379 6.98ZM3.42379 13.448L2.50019 13.8314L2.5046 13.842L2.50925 13.8525L3.42379 13.448ZM5.18779 16.024L4.48062 16.7312L4.48969 16.74L5.18779 16.024ZM7.81979 17.732L7.44249 18.6581L7.44989 18.6611L7.45734 18.664L7.81979 17.732ZM14.2318 17.76L14.5908 18.6933L14.2318 17.76ZM16.8918 15.968L17.5989 15.2609L16.8836 14.5456L16.1766 15.2691L16.8918 15.968ZM18.2078 17.284L18.9504 17.9538L19.5865 17.2485L18.9149 16.5769L18.2078 17.284ZM15.0438 19.44L15.4056 20.3723L15.0438 19.44ZM11.0118 19.168C9.64857 19.168 8.40994 18.9441 7.28556 18.5077L6.56201 20.3723C7.93897 20.9066 9.42566 21.168 11.0118 21.168V19.168ZM7.29756 18.5125C6.16193 18.0548 5.19166 17.4251 4.37556 16.6256L2.97601 18.0544C3.98924 19.0469 5.18431 19.8172 6.55001 20.3675L7.29756 18.5125ZM4.37556 16.6256C3.55678 15.8236 2.91108 14.8781 2.4382 13.7804L0.601373 14.5716C1.17383 15.9005 1.96546 17.0644 2.97601 18.0544L4.37556 16.6256ZM2.44328 13.7924C1.99435 12.7116 1.76379 11.5181 1.76379 10.2H-0.236215C-0.236215 11.7565 0.03722 13.2137 0.596289 14.5596L2.44328 13.7924ZM1.76379 10.2C1.76379 8.88188 1.99435 7.68837 2.44328 6.60761L0.596289 5.84039C0.03722 7.1863 -0.236215 8.64345 -0.236215 10.2H1.76379ZM2.4382 6.61962C2.91108 5.52186 3.55678 4.57643 4.37556 3.77436L2.97601 2.34564C1.96546 3.33557 1.17383 4.49947 0.601373 5.82838L2.4382 6.61962ZM4.36832 3.78139C5.20288 2.98021 6.18135 2.35963 7.31356 1.92027L6.59001 0.0557337C5.22089 0.587036 4.01536 1.34779 2.98325 2.33861L4.36832 3.78139ZM7.32556 1.91552C8.44675 1.4637 9.68116 1.232 11.0398 1.232V-0.768001C9.44908 -0.768001 7.95816 -0.495699 6.57801 0.0604806L7.32556 1.91552ZM11.0398 1.232C12.3419 1.232 13.5532 1.45423 14.682 1.89227L15.4056 0.0277343C14.033 -0.504898 12.575 -0.768001 11.0398 -0.768001V1.232ZM14.6942 1.8969C15.8007 2.30979 16.7187 2.93008 17.4652 3.75777L18.9504 2.41823C17.9796 1.34192 16.7882 0.543545 15.3934 0.0230971L14.6942 1.8969ZM17.5007 2.38089L16.1847 3.69689L17.5989 5.11111L18.9149 3.79511L17.5007 2.38089ZM17.607 3.70507C16.7116 2.78884 15.701 2.11217 14.575 1.70073L13.8886 3.57926C14.7039 3.87716 15.4667 4.3765 16.1766 5.10293L17.607 3.70507ZM14.5908 1.70665C13.497 1.28597 12.329 1.08 11.0958 1.08V3.08C12.1026 3.08 13.0252 3.24736 13.8728 3.57335L14.5908 1.70665ZM11.0958 1.08C9.80091 1.08 8.57964 1.30662 7.44249 1.76991L8.19708 3.62209C9.07594 3.26404 10.0387 3.08 11.0958 3.08V1.08ZM7.45734 1.76399C6.32332 2.205 5.32781 2.84976 4.48068 3.69689L5.89489 5.11111C6.5411 4.4649 7.30025 3.971 8.18223 3.628L7.45734 1.76399ZM4.48969 3.688C3.64678 4.50983 2.9857 5.47752 2.50644 6.58191L4.34113 7.37809C4.72054 6.50381 5.23545 5.75417 5.88589 5.12L4.48969 3.688ZM2.50282 6.59036C2.03427 7.69783 1.80779 8.90565 1.80779 10.2H3.80779C3.80779 9.14235 3.99197 8.2035 4.34475 7.36964L2.50282 6.59036ZM1.80779 10.2C1.80779 11.4946 2.03435 12.7091 2.50019 13.8314L4.34738 13.0646C3.99189 12.2082 3.80779 11.2574 3.80779 10.2H1.80779ZM2.50925 13.8525C2.98821 14.9354 3.64634 15.8968 4.48068 16.7311L5.89489 15.3169C5.2359 14.6579 4.71803 13.902 4.33832 13.0435L2.50925 13.8525ZM4.48969 16.74C5.33276 17.562 6.32032 18.2009 7.44249 18.6581L8.19708 16.8059C7.30325 16.4418 6.53615 15.942 5.88589 15.308L4.48969 16.74ZM7.45734 18.664C8.59061 19.1047 9.80667 19.32 11.0958 19.32V17.32C10.0329 17.32 9.06496 17.1433 8.18223 16.8L7.45734 18.664ZM11.0958 19.32C12.329 19.32 13.497 19.114 14.5908 18.6933L13.8728 16.8267C13.0252 17.1526 12.1026 17.32 11.0958 17.32V19.32ZM14.5908 18.6933C15.7091 18.2632 16.7144 17.5803 17.607 16.6669L16.1766 15.2691C15.4639 15.9984 14.6958 16.5101 13.8728 16.8267L14.5908 18.6933ZM16.1847 16.6751L17.5007 17.9911L18.9149 16.5769L17.5989 15.2609L16.1847 16.6751ZM17.4652 16.6142C16.7161 17.4448 15.7939 18.0762 14.682 18.5077L15.4056 20.3723C16.795 19.8331 17.9821 19.0272 18.9504 17.9538L17.4652 16.6142ZM14.682 18.5077C13.5547 18.9452 12.3343 19.168 11.0118 19.168V21.168C12.564 21.168 14.0315 20.9055 15.4056 20.3723L14.682 18.5077ZM26.2586 19.44L25.8849 20.3675L25.8931 20.3709L25.9015 20.3741L26.2586 19.44ZM22.9826 17.34L22.2755 18.0471L22.2827 18.0543L22.2901 18.0614L22.9826 17.34ZM20.8266 14.176L19.9031 14.5596L19.9067 14.5682L19.9105 14.5768L20.8266 14.176ZM20.8266 6.252L19.9082 5.85636L19.9053 5.8633L20.8266 6.252ZM22.9826 3.088L23.6824 3.80236L23.6826 3.80221L22.9826 3.088ZM26.2586 0.987999L26.6204 1.92034L26.6324 1.91552L26.2586 0.987999ZM34.4626 0.987999L34.0888 1.9156L34.1009 1.92027L34.4626 0.987999ZM37.7106 3.06L37.0108 3.77439L37.0181 3.78139L37.7106 3.06ZM39.8666 6.224L38.9431 6.60764L38.9482 6.61962L39.8666 6.224ZM39.8666 14.176L38.9481 13.7803L38.9431 13.7924L39.8666 14.176ZM37.7106 17.34L37.0181 16.6186L37.0108 16.6256L37.7106 17.34ZM34.4626 19.44L34.8244 20.3723L34.8364 20.3675L34.4626 19.44ZM33.6226 17.732L33.991 18.6617L33.9999 18.6581L33.6226 17.732ZM36.2266 16.024L35.5195 15.3169V15.3169L36.2266 16.024ZM37.9626 13.448L38.8836 13.8376L38.8862 13.8314L37.9626 13.448ZM37.9626 6.98L37.039 7.36339L37.0417 7.36964L37.9626 6.98ZM36.2266 4.404L35.5106 5.1021L35.5195 5.11116L35.5285 5.12L36.2266 4.404ZM33.6226 2.696L33.2393 3.61959L33.2497 3.62392L33.2602 3.628L33.6226 2.696ZM27.0986 2.696L27.4611 3.628L27.4685 3.62511L27.4759 3.62209L27.0986 2.696ZM24.4666 4.404L23.7595 3.69689V3.69689L24.4666 4.404ZM22.7306 6.98L21.8132 6.58189L21.8097 6.59036L22.7306 6.98ZM22.7306 13.42L21.807 13.8034L21.8101 13.8108L21.8133 13.8181L22.7306 13.42ZM24.4666 16.024L23.7506 16.7221L23.7595 16.7312L23.7685 16.74L24.4666 16.024ZM27.0986 17.732L26.7213 18.6581L26.7287 18.6611L26.7362 18.664L27.0986 17.732ZM30.3746 19.168C29.0116 19.168 27.7617 18.9441 26.6158 18.5059L25.9015 20.3741C27.2942 20.9066 28.7883 21.168 30.3746 21.168V19.168ZM26.6324 18.5125C25.4951 18.0542 24.5125 17.4225 23.6752 16.6186L22.2901 18.0614C23.3194 19.0495 24.5208 19.8178 25.8849 20.3675L26.6324 18.5125ZM23.6897 16.6329C22.864 15.8071 22.2159 14.8566 21.7428 13.7752L19.9105 14.5768C20.4827 15.8848 21.272 17.0435 22.2755 18.0471L23.6897 16.6329ZM21.7501 13.7924C21.3012 12.7116 21.0706 11.5181 21.0706 10.2H19.0706C19.0706 11.7565 19.3441 13.2137 19.9031 14.5596L21.7501 13.7924ZM21.0706 10.2C21.0706 8.88166 21.3013 7.69964 21.748 6.6407L19.9053 5.8633C19.344 7.1937 19.0706 8.64368 19.0706 10.2H21.0706ZM21.745 6.64762C22.2179 5.54986 22.8636 4.60443 23.6824 3.80236L22.2828 2.37364C21.2723 3.36356 20.4807 4.52747 19.9082 5.85638L21.745 6.64762ZM23.6826 3.80221C24.5165 2.98494 25.4926 2.35791 26.6204 1.92027L25.8969 0.0557337C24.5233 0.588754 23.3154 1.36173 22.2827 2.37379L23.6826 3.80221ZM26.6324 1.91552C27.7521 1.46429 28.9956 1.232 30.3746 1.232V-0.768001C28.767 -0.768001 27.2665 -0.496287 25.8849 0.0604806L26.6324 1.91552ZM30.3746 1.232C31.7333 1.232 32.9677 1.4637 34.0889 1.91552L34.8364 0.0604805C33.4563 -0.495699 31.9653 -0.768001 30.3746 -0.768001V1.232ZM34.1009 1.92027C35.2314 2.35898 36.1975 2.97764 37.0108 3.77436L38.4104 2.34564C37.3944 1.35036 36.1952 0.58768 34.8244 0.0557338L34.1009 1.92027ZM37.0181 3.78139C37.8504 4.58041 38.4912 5.51955 38.9431 6.60761L40.7901 5.84039C40.2341 4.50178 39.4375 3.33159 38.4032 2.33861L37.0181 3.78139ZM38.9482 6.61962C39.4125 7.69737 39.6506 8.88664 39.6506 10.2H41.6506C41.6506 8.63869 41.3661 7.17729 40.785 5.82838L38.9482 6.61962ZM39.6506 10.2C39.6506 11.5134 39.4125 12.7026 38.9482 13.7804L40.785 14.5716C41.3661 13.2227 41.6506 11.7613 41.6506 10.2H39.6506ZM38.9431 13.7924C38.4912 14.8804 37.8504 15.8196 37.0181 16.6186L38.4032 18.0614C39.4375 17.0684 40.2341 15.8982 40.7901 14.5596L38.9431 13.7924ZM37.0108 16.6256C36.1948 17.4251 35.2245 18.0548 34.0889 18.5125L34.8364 20.3675C36.2021 19.8172 37.3972 19.0469 38.4104 18.0544L37.0108 16.6256ZM34.1009 18.5077C32.9765 18.9441 31.7378 19.168 30.3746 19.168V21.168C31.9608 21.168 33.4474 20.9066 34.8244 20.3723L34.1009 18.5077ZM30.3746 19.32C31.6635 19.32 32.8727 19.1048 33.991 18.6617L33.2543 16.8023C32.3939 17.1432 31.4378 17.32 30.3746 17.32V19.32ZM33.9999 18.6581C35.1242 18.2001 36.1062 17.5587 36.9337 16.7311L35.5195 15.3169C34.8911 15.9453 34.1371 16.4426 33.2453 16.8059L33.9999 18.6581ZM36.9337 16.7311C37.7713 15.8936 38.4227 14.9271 38.8836 13.8376L37.0417 13.0584C36.6813 13.9102 36.1753 14.6611 35.5195 15.3169L36.9337 16.7311ZM38.8862 13.8314C39.3521 12.7091 39.5786 11.4946 39.5786 10.2H37.5786C37.5786 11.2574 37.3945 12.2082 37.039 13.0646L38.8862 13.8314ZM39.5786 10.2C39.5786 8.90565 39.3521 7.69783 38.8836 6.59036L37.0417 7.36964C37.3944 8.2035 37.5786 9.14235 37.5786 10.2H39.5786ZM38.8862 6.59662C38.4251 5.48578 37.771 4.51307 36.9247 3.688L35.5285 5.12C36.1756 5.75093 36.6788 6.49555 37.039 7.36338L38.8862 6.59662ZM36.9426 3.7059C36.1111 2.85307 35.1212 2.20583 33.9851 1.76399L33.2602 3.628C34.14 3.97017 34.8861 4.4616 35.5106 5.1021L36.9426 3.7059ZM34.006 1.77241C32.8838 1.30657 31.6693 1.08 30.3746 1.08V3.08C31.432 3.08 32.3828 3.2641 33.2393 3.61959L34.006 1.77241ZM30.3746 1.08C29.0798 1.08 27.8585 1.30662 26.7213 1.76991L27.4759 3.62209C28.3548 3.26404 29.3175 3.08 30.3746 3.08V1.08ZM26.7362 1.76399C25.6022 2.205 24.6067 2.84976 23.7595 3.69689L25.1737 5.11111C25.8199 4.4649 26.5791 3.971 27.4611 3.628L26.7362 1.76399ZM23.7595 3.69689C22.9385 4.51796 22.2902 5.48283 21.8133 6.58191L23.648 7.37809C24.0297 6.4985 24.5388 5.74604 25.1737 5.11111L23.7595 3.69689ZM21.8097 6.59036C21.3411 7.69783 21.1146 8.90565 21.1146 10.2H23.1146C23.1146 9.14235 23.2988 8.2035 23.6516 7.36964L21.8097 6.59036ZM21.1146 10.2C21.1146 11.4782 21.342 12.683 21.807 13.8034L23.6542 13.0366C23.2979 12.1783 23.1146 11.2364 23.1146 10.2H21.1146ZM21.8133 13.8181C22.2893 14.915 22.935 15.8855 23.7506 16.7221L25.1826 15.3259C24.5423 14.6692 24.0306 13.9037 23.648 13.0219L21.8133 13.8181ZM23.7685 16.74C24.6116 17.562 25.5992 18.2009 26.7213 18.6581L27.4759 16.8059C26.5821 16.4418 25.815 15.942 25.1647 15.308L23.7685 16.74ZM26.7362 18.664C27.8695 19.1047 29.0855 19.32 30.3746 19.32V17.32C29.3117 17.32 28.3438 17.1433 27.4611 16.8L26.7362 18.664ZM44.8869 20H43.8869V21H44.8869V20ZM44.8869 0.399999V-0.600001H43.8869V0.399999H44.8869ZM46.5949 0.399999L47.3779 -0.222023L47.0776 -0.600001H46.5949V0.399999ZM60.1189 17.424V18.424H62.1905L60.9019 16.802L60.1189 17.424ZM59.2229 17.424H58.2229V18.424H59.2229V17.424ZM59.2229 0.399999V-0.600001H58.2229V0.399999H59.2229ZM61.2669 0.399999H62.2669V-0.600001H61.2669V0.399999ZM61.2669 20V21H62.2669V20H61.2669ZM59.5589 20L58.7753 20.6212L59.0756 21H59.5589V20ZM46.0629 2.976V1.976H43.994L45.2793 3.59723L46.0629 2.976ZM46.9589 2.976H47.9589V1.976H46.9589V2.976ZM46.9589 20V21H47.9589V20H46.9589ZM45.8869 20V0.399999H43.8869V20H45.8869ZM44.8869 1.4H46.5949V-0.600001H44.8869V1.4ZM45.8119 1.02202L59.3359 18.046L60.9019 16.802L47.3779 -0.222023L45.8119 1.02202ZM60.1189 16.424H59.2229V18.424H60.1189V16.424ZM60.2229 17.424V0.399999H58.2229V17.424H60.2229ZM59.2229 1.4H61.2669V-0.600001H59.2229V1.4ZM60.2669 0.399999V20H62.2669V0.399999H60.2669ZM61.2669 19H59.5589V21H61.2669V19ZM60.3425 19.3788L46.8465 2.35477L45.2793 3.59723L58.7753 20.6212L60.3425 19.3788ZM46.0629 3.976H46.9589V1.976H46.0629V3.976ZM45.9589 2.976V20H47.9589V2.976H45.9589ZM46.9589 19H44.8869V21H46.9589V19ZM67.2563 20H66.2563V21H67.2563V20ZM67.2563 0.399999V-0.600001H66.2563V0.399999H67.2563ZM68.9643 0.399999L69.7473 -0.222023L69.447 -0.600001H68.9643V0.399999ZM82.4883 17.424V18.424H84.5598L83.2713 16.802L82.4883 17.424ZM81.5923 17.424H80.5923V18.424H81.5923V17.424ZM81.5923 0.399999V-0.600001H80.5923V0.399999H81.5923ZM83.6363 0.399999H84.6363V-0.600001H83.6363V0.399999ZM83.6363 20V21H84.6363V20H83.6363ZM81.9283 20L81.1446 20.6212L81.4449 21H81.9283V20ZM68.4323 2.976V1.976H66.3634L67.6486 3.59723L68.4323 2.976ZM69.3283 2.976H70.3283V1.976H69.3283V2.976ZM69.3283 20V21H70.3283V20H69.3283ZM68.2563 20V0.399999H66.2563V20H68.2563ZM67.2563 1.4H68.9643V-0.600001H67.2563V1.4ZM68.1813 1.02202L81.7053 18.046L83.2713 16.802L69.7473 -0.222023L68.1813 1.02202ZM82.4883 16.424H81.5923V18.424H82.4883V16.424ZM82.5923 17.424V0.399999H80.5923V17.424H82.5923ZM81.5923 1.4H83.6363V-0.600001H81.5923V1.4ZM82.6363 0.399999V20H84.6363V0.399999H82.6363ZM83.6363 19H81.9283V21H83.6363V19ZM82.7119 19.3788L69.2159 2.35477L67.6486 3.59723L81.1446 20.6212L82.7119 19.3788ZM68.4323 3.976H69.3283V1.976H68.4323V3.976ZM68.3283 2.976V20H70.3283V2.976H68.3283ZM69.3283 19H67.2563V21H69.3283V19ZM91.4736 9.164V8.164H90.4736V9.164H91.4736ZM101.834 9.164H102.834V8.164H101.834V9.164ZM101.834 10.928V11.928H102.834V10.928H101.834ZM91.4736 10.928H90.4736V11.928H91.4736V10.928ZM91.6976 18.208H90.6976V19.208H91.6976V18.208ZM103.486 18.208H104.486V17.208H103.486V18.208ZM103.486 20V21H104.486V20H103.486ZM89.6256 20H88.6256V21H89.6256V20ZM89.6256 0.399999V-0.600001H88.6256V0.399999H89.6256ZM103.066 0.399999H104.066V-0.600001H103.066V0.399999ZM103.066 2.192V3.192H104.066V2.192H103.066ZM91.6976 2.192V1.192H90.6976V2.192H91.6976ZM91.4736 10.164H101.834V8.164H91.4736V10.164ZM100.834 9.164V10.928H102.834V9.164H100.834ZM101.834 9.928H91.4736V11.928H101.834V9.928ZM92.4736 10.928V9.164H90.4736V10.928H92.4736ZM91.6976 19.208H103.486V17.208H91.6976V19.208ZM102.486 18.208V20H104.486V18.208H102.486ZM103.486 19H89.6256V21H103.486V19ZM90.6256 20V0.399999H88.6256V20H90.6256ZM89.6256 1.4H103.066V-0.600001H89.6256V1.4ZM102.066 0.399999V2.192H104.066V0.399999H102.066ZM103.066 1.192H91.6976V3.192H103.066V1.192ZM90.6976 2.192V18.208H92.6976V2.192H90.6976ZM104.986 20L104.182 19.4053L103.002 21H104.986V20ZM113.022 9.136H114.022V6.10251L112.218 8.54132L113.022 9.136ZM113.022 10.732L112.215 11.3225L114.022 13.7921V10.732H113.022ZM105.462 0.399999V-0.600001H103.491L104.655 0.990509L105.462 0.399999ZM107.842 0.399999L108.647 -0.19329L108.347 -0.600001H107.842V0.399999ZM114.198 9.024L114.228 10.0235L116.134 9.96578L115.003 8.43071L114.198 9.024ZM113.274 9.052L112.468 8.45996L111.253 10.1137L113.304 10.0515L113.274 9.052ZM119.63 0.399999V-0.600001H119.124L118.824 -0.192043L119.63 0.399999ZM121.87 0.399999L122.676 0.991458L123.844 -0.600001H121.87V0.399999ZM114.394 10.592H113.394V13.646L115.2 11.1835L114.394 10.592ZM114.394 9.136L115.199 8.54266L113.394 6.09398V9.136H114.394ZM122.402 20V21H124.381L123.207 19.4067L122.402 20ZM119.994 20L119.188 20.5925L119.488 21H119.994V20ZM113.218 10.788V9.788H111.241L112.412 11.3805L113.218 10.788ZM114.086 10.788L114.894 11.3773L116.053 9.788H114.086V10.788ZM107.366 20V21H107.874L108.174 20.5893L107.366 20ZM105.79 20.5947L113.826 9.73068L112.218 8.54132L104.182 19.4053L105.79 20.5947ZM112.022 9.136V10.732H114.022V9.136H112.022ZM113.829 10.1415L106.269 -0.190511L104.655 0.990509L112.215 11.3225L113.829 10.1415ZM105.462 1.4H107.842V-0.600001H105.462V1.4ZM107.037 0.993287L113.393 9.61729L115.003 8.43071L108.647 -0.19329L107.037 0.993287ZM114.168 8.02446L113.244 8.05246L113.304 10.0515L114.228 10.0235L114.168 8.02446ZM114.08 9.64404L120.436 0.992041L118.824 -0.192043L112.468 8.45996L114.08 9.64404ZM119.63 1.4H121.87V-0.600001H119.63V1.4ZM121.064 -0.191461L113.588 10.0005L115.2 11.1835L122.676 0.991458L121.064 -0.191461ZM115.394 10.592V9.136H113.394V10.592H115.394ZM113.589 9.72934L121.597 20.5933L123.207 19.4067L115.199 8.54266L113.589 9.72934ZM122.402 19H119.994V21H122.402V19ZM120.8 19.4075L114.024 10.1955L112.412 11.3805L119.188 20.5925L120.8 19.4075ZM113.218 11.788H114.086V9.788H113.218V11.788ZM113.278 10.1987L106.558 19.4107L108.174 20.5893L114.894 11.3773L113.278 10.1987ZM107.366 19H104.986V21H107.366V19ZM124.985 20H123.985V21H124.985V20ZM124.985 0.399999V-0.600001H123.985V0.399999H124.985ZM127.057 0.399999H128.057V-0.600001H127.057V0.399999ZM127.057 20V21H128.057V20H127.057ZM125.985 20V0.399999H123.985V20H125.985ZM124.985 1.4H127.057V-0.600001H124.985V1.4ZM126.057 0.399999V20H128.057V0.399999H126.057ZM127.057 19H124.985V21H127.057V19ZM137.479 19.44L137.105 20.3675L137.113 20.3709L137.121 20.3741L137.479 19.44ZM134.203 17.34L133.495 18.0471L133.503 18.0543L133.51 18.0614L134.203 17.34ZM132.047 14.176L131.123 14.5596L131.127 14.5682L131.13 14.5768L132.047 14.176ZM132.047 6.252L131.128 5.85636L131.125 5.8633L132.047 6.252ZM134.203 3.088L134.902 3.80236L134.903 3.80221L134.203 3.088ZM137.479 0.987999L137.84 1.92034L137.852 1.91552L137.479 0.987999ZM145.683 0.987999L145.309 1.9156L145.321 1.92027L145.683 0.987999ZM148.931 3.06L148.231 3.77439L148.238 3.78139L148.931 3.06ZM151.087 6.224L150.163 6.60764L150.168 6.61962L151.087 6.224ZM151.087 14.176L150.168 13.7803L150.163 13.7924L151.087 14.176ZM148.931 17.34L148.238 16.6186L148.231 16.6256L148.931 17.34ZM145.683 19.44L146.044 20.3723L146.056 20.3675L145.683 19.44ZM144.843 17.732L145.211 18.6617L145.22 18.6581L144.843 17.732ZM147.447 16.024L146.739 15.3169V15.3169L147.447 16.024ZM149.183 13.448L150.104 13.8376L150.106 13.8314L149.183 13.448ZM149.183 6.98L148.259 7.36339L148.262 7.36964L149.183 6.98ZM147.447 4.404L146.731 5.1021L146.739 5.11116L146.748 5.12L147.447 4.404ZM144.843 2.696L144.459 3.61959L144.47 3.62392L144.48 3.628L144.843 2.696ZM138.319 2.696L138.681 3.628L138.688 3.62511L138.696 3.62209L138.319 2.696ZM135.687 4.404L134.979 3.69689V3.69689L135.687 4.404ZM133.951 6.98L133.033 6.58189L133.03 6.59036L133.951 6.98ZM133.951 13.42L133.027 13.8034L133.03 13.8108L133.033 13.8181L133.951 13.42ZM135.687 16.024L134.971 16.7221L134.979 16.7312L134.988 16.74L135.687 16.024ZM138.319 17.732L137.941 18.6581L137.949 18.6611L137.956 18.664L138.319 17.732ZM141.595 19.168C140.232 19.168 138.982 18.9441 137.836 18.5059L137.121 20.3741C138.514 20.9066 140.008 21.168 141.595 21.168V19.168ZM137.852 18.5125C136.715 18.0542 135.732 17.4225 134.895 16.6186L133.51 18.0614C134.539 19.0495 135.741 19.8178 137.105 20.3675L137.852 18.5125ZM134.91 16.6329C134.084 15.8071 133.436 14.8566 132.963 13.7752L131.13 14.5768C131.703 15.8848 132.492 17.0435 133.495 18.0471L134.91 16.6329ZM132.97 13.7924C132.521 12.7116 132.291 11.5181 132.291 10.2H130.291C130.291 11.7565 130.564 13.2137 131.123 14.5596L132.97 13.7924ZM132.291 10.2C132.291 8.88166 132.521 7.69964 132.968 6.6407L131.125 5.8633C130.564 7.1937 130.291 8.64368 130.291 10.2H132.291ZM132.965 6.64762C133.438 5.54986 134.084 4.60443 134.902 3.80236L133.503 2.37364C132.492 3.36356 131.701 4.52747 131.128 5.85638L132.965 6.64762ZM134.903 3.80221C135.736 2.98494 136.713 2.35791 137.84 1.92027L137.117 0.0557337C135.743 0.588754 134.535 1.36173 133.503 2.37379L134.903 3.80221ZM137.852 1.91552C138.972 1.46429 140.216 1.232 141.595 1.232V-0.768001C139.987 -0.768001 138.486 -0.496287 137.105 0.0604806L137.852 1.91552ZM141.595 1.232C142.953 1.232 144.188 1.4637 145.309 1.91552L146.056 0.0604805C144.676 -0.495699 143.185 -0.768001 141.595 -0.768001V1.232ZM145.321 1.92027C146.451 2.35898 147.417 2.97764 148.231 3.77436L149.63 2.34564C148.614 1.35036 147.415 0.58768 146.044 0.0557338L145.321 1.92027ZM148.238 3.78139C149.07 4.58041 149.711 5.51955 150.163 6.60761L152.01 5.84039C151.454 4.50178 150.657 3.33159 149.623 2.33861L148.238 3.78139ZM150.168 6.61962C150.632 7.69737 150.871 8.88664 150.871 10.2H152.871C152.871 8.63869 152.586 7.17729 152.005 5.82838L150.168 6.61962ZM150.871 10.2C150.871 11.5134 150.632 12.7026 150.168 13.7804L152.005 14.5716C152.586 13.2227 152.871 11.7613 152.871 10.2H150.871ZM150.163 13.7924C149.711 14.8804 149.07 15.8196 148.238 16.6186L149.623 18.0614C150.657 17.0684 151.454 15.8982 152.01 14.5596L150.163 13.7924ZM148.231 16.6256C147.415 17.4251 146.444 18.0548 145.309 18.5125L146.056 20.3675C147.422 19.8172 148.617 19.0469 149.63 18.0544L148.231 16.6256ZM145.321 18.5077C144.196 18.9441 142.958 19.168 141.595 19.168V21.168C143.181 21.168 144.667 20.9066 146.044 20.3723L145.321 18.5077ZM141.595 19.32C142.883 19.32 144.093 19.1048 145.211 18.6617L144.474 16.8023C143.614 17.1432 142.658 17.32 141.595 17.32V19.32ZM145.22 18.6581C146.344 18.2001 147.326 17.5587 148.154 16.7311L146.739 15.3169C146.111 15.9453 145.357 16.4426 144.465 16.8059L145.22 18.6581ZM148.154 16.7311C148.991 15.8936 149.643 14.9271 150.104 13.8376L148.262 13.0584C147.901 13.9102 147.395 14.6611 146.739 15.3169L148.154 16.7311ZM150.106 13.8314C150.572 12.7091 150.799 11.4946 150.799 10.2H148.799C148.799 11.2574 148.615 12.2082 148.259 13.0646L150.106 13.8314ZM150.799 10.2C150.799 8.90565 150.572 7.69783 150.104 6.59036L148.262 7.36964C148.614 8.2035 148.799 9.14235 148.799 10.2H150.799ZM150.106 6.59662C149.645 5.48578 148.991 4.51307 148.145 3.688L146.748 5.12C147.396 5.75093 147.899 6.49555 148.259 7.36338L150.106 6.59662ZM148.163 3.7059C147.331 2.85307 146.341 2.20583 145.205 1.76399L144.48 3.628C145.36 3.97017 146.106 4.4616 146.731 5.1021L148.163 3.7059ZM145.226 1.77241C144.104 1.30657 142.889 1.08 141.595 1.08V3.08C142.652 3.08 143.603 3.2641 144.459 3.61959L145.226 1.77241ZM141.595 1.08C140.3 1.08 139.078 1.30662 137.941 1.76991L138.696 3.62209C139.575 3.26404 140.537 3.08 141.595 3.08V1.08ZM137.956 1.76399C136.822 2.205 135.827 2.84976 134.979 3.69689L136.394 5.11111C137.04 4.4649 137.799 3.971 138.681 3.628L137.956 1.76399ZM134.979 3.69689C134.158 4.51796 133.51 5.48283 133.033 6.58191L134.868 7.37809C135.25 6.4985 135.759 5.74604 136.394 5.11111L134.979 3.69689ZM133.03 6.59036C132.561 7.69783 132.335 8.90565 132.335 10.2H134.335C134.335 9.14235 134.519 8.2035 134.872 7.36964L133.03 6.59036ZM132.335 10.2C132.335 11.4782 132.562 12.683 133.027 13.8034L134.874 13.0366C134.518 12.1783 134.335 11.2364 134.335 10.2H132.335ZM133.033 13.8181C133.509 14.915 134.155 15.8855 134.971 16.7221L136.403 15.3259C135.762 14.6692 135.251 13.9037 134.868 13.0219L133.033 13.8181ZM134.988 16.74C135.832 17.562 136.819 18.2009 137.941 18.6581L138.696 16.8059C137.802 16.4418 137.035 15.942 136.385 15.308L134.988 16.74ZM137.956 18.664C139.089 19.1047 140.305 19.32 141.595 19.32V17.32C140.532 17.32 139.564 17.1433 138.681 16.8L137.956 18.664ZM156.107 20H155.107V21H156.107V20ZM156.107 0.399999V-0.600001H155.107V0.399999H156.107ZM157.815 0.399999L158.598 -0.222023L158.298 -0.600001H157.815V0.399999ZM171.339 17.424V18.424H173.41L172.122 16.802L171.339 17.424ZM170.443 17.424H169.443V18.424H170.443V17.424ZM170.443 0.399999V-0.600001H169.443V0.399999H170.443ZM172.487 0.399999H173.487V-0.600001H172.487V0.399999ZM172.487 20V21H173.487V20H172.487ZM170.779 20L169.995 20.6212L170.296 21H170.779V20ZM157.283 2.976V1.976H155.214L156.499 3.59723L157.283 2.976ZM158.179 2.976H159.179V1.976H158.179V2.976ZM158.179 20V21H159.179V20H158.179ZM157.107 20V0.399999H155.107V20H157.107ZM156.107 1.4H157.815V-0.600001H156.107V1.4ZM157.032 1.02202L170.556 18.046L172.122 16.802L158.598 -0.222023L157.032 1.02202ZM171.339 16.424H170.443V18.424H171.339V16.424ZM171.443 17.424V0.399999H169.443V17.424H171.443ZM170.443 1.4H172.487V-0.600001H170.443V1.4ZM171.487 0.399999V20H173.487V0.399999H171.487ZM172.487 19H170.779V21H172.487V19ZM171.562 19.3788L158.066 2.35477L156.499 3.59723L169.995 20.6212L171.562 19.3788ZM157.283 3.976H158.179V1.976H157.283V3.976ZM157.179 2.976V20H159.179V2.976H157.179ZM158.179 19H156.107V21H158.179V19Z" fill="url(#paint2_linear_525_4699)"/>
<path d="M6.92379 19.44L6.54998 20.3676L6.56201 20.3723L6.92379 19.44ZM3.67579 17.34L2.97601 18.0544L3.67579 17.34ZM1.51978 14.176L0.59621 14.5596L0.601373 14.5716L1.51978 14.176ZM1.51978 6.224L0.601295 5.82834L0.596289 5.84039L1.51978 6.224ZM3.67579 3.06L2.98322 2.33858L2.97601 2.34564L3.67579 3.06ZM6.95179 0.987999L7.31359 1.92034L7.32556 1.91552L6.95179 0.987999ZM15.0438 0.96L14.682 1.89234L14.6942 1.8969L15.0438 0.96ZM18.2078 3.088L18.9149 3.79511L19.5865 3.12351L18.9504 2.41823L18.2078 3.088ZM16.8918 4.404L16.1766 5.10293L16.8836 5.82639L17.5989 5.11111L16.8918 4.404ZM14.2318 2.64L13.8728 3.57335L13.8807 3.57637L13.8886 3.57926L14.2318 2.64ZM7.81979 2.696L8.18223 3.628L8.18968 3.62511L8.19708 3.62209L7.81979 2.696ZM5.18779 4.404L5.88594 5.12006L5.89489 5.11111L5.18779 4.404ZM3.42379 6.98L2.5064 6.58189L2.50282 6.59036L3.42379 6.98ZM3.42379 13.448L2.50019 13.8314L2.5046 13.842L2.50925 13.8525L3.42379 13.448ZM5.18779 16.024L4.48062 16.7312L4.48969 16.74L5.18779 16.024ZM7.81979 17.732L7.44249 18.6581L7.44989 18.6611L7.45734 18.664L7.81979 17.732ZM14.2318 17.76L14.5908 18.6933L14.2318 17.76ZM16.8918 15.968L17.5989 15.2609L16.8836 14.5456L16.1766 15.2691L16.8918 15.968ZM18.2078 17.284L18.9504 17.9538L19.5865 17.2485L18.9149 16.5769L18.2078 17.284ZM15.0438 19.44L15.4056 20.3723L15.0438 19.44ZM11.0118 19.168C9.64857 19.168 8.40994 18.9441 7.28556 18.5077L6.56201 20.3723C7.93897 20.9066 9.42566 21.168 11.0118 21.168V19.168ZM7.29756 18.5125C6.16193 18.0548 5.19166 17.4251 4.37556 16.6256L2.97601 18.0544C3.98924 19.0469 5.18431 19.8172 6.55001 20.3675L7.29756 18.5125ZM4.37556 16.6256C3.55678 15.8236 2.91108 14.8781 2.4382 13.7804L0.601373 14.5716C1.17383 15.9005 1.96546 17.0644 2.97601 18.0544L4.37556 16.6256ZM2.44328 13.7924C1.99435 12.7116 1.76379 11.5181 1.76379 10.2H-0.236215C-0.236215 11.7565 0.03722 13.2137 0.596289 14.5596L2.44328 13.7924ZM1.76379 10.2C1.76379 8.88188 1.99435 7.68837 2.44328 6.60761L0.596289 5.84039C0.03722 7.1863 -0.236215 8.64345 -0.236215 10.2H1.76379ZM2.4382 6.61962C2.91108 5.52186 3.55678 4.57643 4.37556 3.77436L2.97601 2.34564C1.96546 3.33557 1.17383 4.49947 0.601373 5.82838L2.4382 6.61962ZM4.36832 3.78139C5.20288 2.98021 6.18135 2.35963 7.31356 1.92027L6.59001 0.0557337C5.22089 0.587036 4.01536 1.34779 2.98325 2.33861L4.36832 3.78139ZM7.32556 1.91552C8.44675 1.4637 9.68116 1.232 11.0398 1.232V-0.768001C9.44908 -0.768001 7.95816 -0.495699 6.57801 0.0604806L7.32556 1.91552ZM11.0398 1.232C12.3419 1.232 13.5532 1.45423 14.682 1.89227L15.4056 0.0277343C14.033 -0.504898 12.575 -0.768001 11.0398 -0.768001V1.232ZM14.6942 1.8969C15.8007 2.30979 16.7187 2.93008 17.4652 3.75777L18.9504 2.41823C17.9796 1.34192 16.7882 0.543545 15.3934 0.0230971L14.6942 1.8969ZM17.5007 2.38089L16.1847 3.69689L17.5989 5.11111L18.9149 3.79511L17.5007 2.38089ZM17.607 3.70507C16.7116 2.78884 15.701 2.11217 14.575 1.70073L13.8886 3.57926C14.7039 3.87716 15.4667 4.3765 16.1766 5.10293L17.607 3.70507ZM14.5908 1.70665C13.497 1.28597 12.329 1.08 11.0958 1.08V3.08C12.1026 3.08 13.0252 3.24736 13.8728 3.57335L14.5908 1.70665ZM11.0958 1.08C9.80091 1.08 8.57964 1.30662 7.44249 1.76991L8.19708 3.62209C9.07594 3.26404 10.0387 3.08 11.0958 3.08V1.08ZM7.45734 1.76399C6.32332 2.205 5.32781 2.84976 4.48068 3.69689L5.89489 5.11111C6.5411 4.4649 7.30025 3.971 8.18223 3.628L7.45734 1.76399ZM4.48969 3.688C3.64678 4.50983 2.9857 5.47752 2.50644 6.58191L4.34113 7.37809C4.72054 6.50381 5.23545 5.75417 5.88589 5.12L4.48969 3.688ZM2.50282 6.59036C2.03427 7.69783 1.80779 8.90565 1.80779 10.2H3.80779C3.80779 9.14235 3.99197 8.2035 4.34475 7.36964L2.50282 6.59036ZM1.80779 10.2C1.80779 11.4946 2.03435 12.7091 2.50019 13.8314L4.34738 13.0646C3.99189 12.2082 3.80779 11.2574 3.80779 10.2H1.80779ZM2.50925 13.8525C2.98821 14.9354 3.64634 15.8968 4.48068 16.7311L5.89489 15.3169C5.2359 14.6579 4.71803 13.902 4.33832 13.0435L2.50925 13.8525ZM4.48969 16.74C5.33276 17.562 6.32032 18.2009 7.44249 18.6581L8.19708 16.8059C7.30325 16.4418 6.53615 15.942 5.88589 15.308L4.48969 16.74ZM7.45734 18.664C8.59061 19.1047 9.80667 19.32 11.0958 19.32V17.32C10.0329 17.32 9.06496 17.1433 8.18223 16.8L7.45734 18.664ZM11.0958 19.32C12.329 19.32 13.497 19.114 14.5908 18.6933L13.8728 16.8267C13.0252 17.1526 12.1026 17.32 11.0958 17.32V19.32ZM14.5908 18.6933C15.7091 18.2632 16.7144 17.5803 17.607 16.6669L16.1766 15.2691C15.4639 15.9984 14.6958 16.5101 13.8728 16.8267L14.5908 18.6933ZM16.1847 16.6751L17.5007 17.9911L18.9149 16.5769L17.5989 15.2609L16.1847 16.6751ZM17.4652 16.6142C16.7161 17.4448 15.7939 18.0762 14.682 18.5077L15.4056 20.3723C16.795 19.8331 17.9821 19.0272 18.9504 17.9538L17.4652 16.6142ZM14.682 18.5077C13.5547 18.9452 12.3343 19.168 11.0118 19.168V21.168C12.564 21.168 14.0315 20.9055 15.4056 20.3723L14.682 18.5077ZM26.2586 19.44L25.8849 20.3675L25.8931 20.3709L25.9015 20.3741L26.2586 19.44ZM22.9826 17.34L22.2755 18.0471L22.2827 18.0543L22.2901 18.0614L22.9826 17.34ZM20.8266 14.176L19.9031 14.5596L19.9067 14.5682L19.9105 14.5768L20.8266 14.176ZM20.8266 6.252L19.9082 5.85636L19.9053 5.8633L20.8266 6.252ZM22.9826 3.088L23.6824 3.80236L23.6826 3.80221L22.9826 3.088ZM26.2586 0.987999L26.6204 1.92034L26.6324 1.91552L26.2586 0.987999ZM34.4626 0.987999L34.0888 1.9156L34.1009 1.92027L34.4626 0.987999ZM37.7106 3.06L37.0108 3.77439L37.0181 3.78139L37.7106 3.06ZM39.8666 6.224L38.9431 6.60764L38.9482 6.61962L39.8666 6.224ZM39.8666 14.176L38.9481 13.7803L38.9431 13.7924L39.8666 14.176ZM37.7106 17.34L37.0181 16.6186L37.0108 16.6256L37.7106 17.34ZM34.4626 19.44L34.8244 20.3723L34.8364 20.3675L34.4626 19.44ZM33.6226 17.732L33.991 18.6617L33.9999 18.6581L33.6226 17.732ZM36.2266 16.024L35.5195 15.3169V15.3169L36.2266 16.024ZM37.9626 13.448L38.8836 13.8376L38.8862 13.8314L37.9626 13.448ZM37.9626 6.98L37.039 7.36339L37.0417 7.36964L37.9626 6.98ZM36.2266 4.404L35.5106 5.1021L35.5195 5.11116L35.5285 5.12L36.2266 4.404ZM33.6226 2.696L33.2393 3.61959L33.2497 3.62392L33.2602 3.628L33.6226 2.696ZM27.0986 2.696L27.4611 3.628L27.4685 3.62511L27.4759 3.62209L27.0986 2.696ZM24.4666 4.404L23.7595 3.69689V3.69689L24.4666 4.404ZM22.7306 6.98L21.8132 6.58189L21.8097 6.59036L22.7306 6.98ZM22.7306 13.42L21.807 13.8034L21.8101 13.8108L21.8133 13.8181L22.7306 13.42ZM24.4666 16.024L23.7506 16.7221L23.7595 16.7312L23.7685 16.74L24.4666 16.024ZM27.0986 17.732L26.7213 18.6581L26.7287 18.6611L26.7362 18.664L27.0986 17.732ZM30.3746 19.168C29.0116 19.168 27.7617 18.9441 26.6158 18.5059L25.9015 20.3741C27.2942 20.9066 28.7883 21.168 30.3746 21.168V19.168ZM26.6324 18.5125C25.4951 18.0542 24.5125 17.4225 23.6752 16.6186L22.2901 18.0614C23.3194 19.0495 24.5208 19.8178 25.8849 20.3675L26.6324 18.5125ZM23.6897 16.6329C22.864 15.8071 22.2159 14.8566 21.7428 13.7752L19.9105 14.5768C20.4827 15.8848 21.272 17.0435 22.2755 18.0471L23.6897 16.6329ZM21.7501 13.7924C21.3012 12.7116 21.0706 11.5181 21.0706 10.2H19.0706C19.0706 11.7565 19.3441 13.2137 19.9031 14.5596L21.7501 13.7924ZM21.0706 10.2C21.0706 8.88166 21.3013 7.69964 21.748 6.6407L19.9053 5.8633C19.344 7.1937 19.0706 8.64368 19.0706 10.2H21.0706ZM21.745 6.64762C22.2179 5.54986 22.8636 4.60443 23.6824 3.80236L22.2828 2.37364C21.2723 3.36356 20.4807 4.52747 19.9082 5.85638L21.745 6.64762ZM23.6826 3.80221C24.5165 2.98494 25.4926 2.35791 26.6204 1.92027L25.8969 0.0557337C24.5233 0.588754 23.3154 1.36173 22.2827 2.37379L23.6826 3.80221ZM26.6324 1.91552C27.7521 1.46429 28.9956 1.232 30.3746 1.232V-0.768001C28.767 -0.768001 27.2665 -0.496287 25.8849 0.0604806L26.6324 1.91552ZM30.3746 1.232C31.7333 1.232 32.9677 1.4637 34.0889 1.91552L34.8364 0.0604805C33.4563 -0.495699 31.9653 -0.768001 30.3746 -0.768001V1.232ZM34.1009 1.92027C35.2314 2.35898 36.1975 2.97764 37.0108 3.77436L38.4104 2.34564C37.3944 1.35036 36.1952 0.58768 34.8244 0.0557338L34.1009 1.92027ZM37.0181 3.78139C37.8504 4.58041 38.4912 5.51955 38.9431 6.60761L40.7901 5.84039C40.2341 4.50178 39.4375 3.33159 38.4032 2.33861L37.0181 3.78139ZM38.9482 6.61962C39.4125 7.69737 39.6506 8.88664 39.6506 10.2H41.6506C41.6506 8.63869 41.3661 7.17729 40.785 5.82838L38.9482 6.61962ZM39.6506 10.2C39.6506 11.5134 39.4125 12.7026 38.9482 13.7804L40.785 14.5716C41.3661 13.2227 41.6506 11.7613 41.6506 10.2H39.6506ZM38.9431 13.7924C38.4912 14.8804 37.8504 15.8196 37.0181 16.6186L38.4032 18.0614C39.4375 17.0684 40.2341 15.8982 40.7901 14.5596L38.9431 13.7924ZM37.0108 16.6256C36.1948 17.4251 35.2245 18.0548 34.0889 18.5125L34.8364 20.3675C36.2021 19.8172 37.3972 19.0469 38.4104 18.0544L37.0108 16.6256ZM34.1009 18.5077C32.9765 18.9441 31.7378 19.168 30.3746 19.168V21.168C31.9608 21.168 33.4474 20.9066 34.8244 20.3723L34.1009 18.5077ZM30.3746 19.32C31.6635 19.32 32.8727 19.1048 33.991 18.6617L33.2543 16.8023C32.3939 17.1432 31.4378 17.32 30.3746 17.32V19.32ZM33.9999 18.6581C35.1242 18.2001 36.1062 17.5587 36.9337 16.7311L35.5195 15.3169C34.8911 15.9453 34.1371 16.4426 33.2453 16.8059L33.9999 18.6581ZM36.9337 16.7311C37.7713 15.8936 38.4227 14.9271 38.8836 13.8376L37.0417 13.0584C36.6813 13.9102 36.1753 14.6611 35.5195 15.3169L36.9337 16.7311ZM38.8862 13.8314C39.3521 12.7091 39.5786 11.4946 39.5786 10.2H37.5786C37.5786 11.2574 37.3945 12.2082 37.039 13.0646L38.8862 13.8314ZM39.5786 10.2C39.5786 8.90565 39.3521 7.69783 38.8836 6.59036L37.0417 7.36964C37.3944 8.2035 37.5786 9.14235 37.5786 10.2H39.5786ZM38.8862 6.59662C38.4251 5.48578 37.771 4.51307 36.9247 3.688L35.5285 5.12C36.1756 5.75093 36.6788 6.49555 37.039 7.36338L38.8862 6.59662ZM36.9426 3.7059C36.1111 2.85307 35.1212 2.20583 33.9851 1.76399L33.2602 3.628C34.14 3.97017 34.8861 4.4616 35.5106 5.1021L36.9426 3.7059ZM34.006 1.77241C32.8838 1.30657 31.6693 1.08 30.3746 1.08V3.08C31.432 3.08 32.3828 3.2641 33.2393 3.61959L34.006 1.77241ZM30.3746 1.08C29.0798 1.08 27.8585 1.30662 26.7213 1.76991L27.4759 3.62209C28.3548 3.26404 29.3175 3.08 30.3746 3.08V1.08ZM26.7362 1.76399C25.6022 2.205 24.6067 2.84976 23.7595 3.69689L25.1737 5.11111C25.8199 4.4649 26.5791 3.971 27.4611 3.628L26.7362 1.76399ZM23.7595 3.69689C22.9385 4.51796 22.2902 5.48283 21.8133 6.58191L23.648 7.37809C24.0297 6.4985 24.5388 5.74604 25.1737 5.11111L23.7595 3.69689ZM21.8097 6.59036C21.3411 7.69783 21.1146 8.90565 21.1146 10.2H23.1146C23.1146 9.14235 23.2988 8.2035 23.6516 7.36964L21.8097 6.59036ZM21.1146 10.2C21.1146 11.4782 21.342 12.683 21.807 13.8034L23.6542 13.0366C23.2979 12.1783 23.1146 11.2364 23.1146 10.2H21.1146ZM21.8133 13.8181C22.2893 14.915 22.935 15.8855 23.7506 16.7221L25.1826 15.3259C24.5423 14.6692 24.0306 13.9037 23.648 13.0219L21.8133 13.8181ZM23.7685 16.74C24.6116 17.562 25.5992 18.2009 26.7213 18.6581L27.4759 16.8059C26.5821 16.4418 25.815 15.942 25.1647 15.308L23.7685 16.74ZM26.7362 18.664C27.8695 19.1047 29.0855 19.32 30.3746 19.32V17.32C29.3117 17.32 28.3438 17.1433 27.4611 16.8L26.7362 18.664ZM44.8869 20H43.8869V21H44.8869V20ZM44.8869 0.399999V-0.600001H43.8869V0.399999H44.8869ZM46.5949 0.399999L47.3779 -0.222023L47.0776 -0.600001H46.5949V0.399999ZM60.1189 17.424V18.424H62.1905L60.9019 16.802L60.1189 17.424ZM59.2229 17.424H58.2229V18.424H59.2229V17.424ZM59.2229 0.399999V-0.600001H58.2229V0.399999H59.2229ZM61.2669 0.399999H62.2669V-0.600001H61.2669V0.399999ZM61.2669 20V21H62.2669V20H61.2669ZM59.5589 20L58.7753 20.6212L59.0756 21H59.5589V20ZM46.0629 2.976V1.976H43.994L45.2793 3.59723L46.0629 2.976ZM46.9589 2.976H47.9589V1.976H46.9589V2.976ZM46.9589 20V21H47.9589V20H46.9589ZM45.8869 20V0.399999H43.8869V20H45.8869ZM44.8869 1.4H46.5949V-0.600001H44.8869V1.4ZM45.8119 1.02202L59.3359 18.046L60.9019 16.802L47.3779 -0.222023L45.8119 1.02202ZM60.1189 16.424H59.2229V18.424H60.1189V16.424ZM60.2229 17.424V0.399999H58.2229V17.424H60.2229ZM59.2229 1.4H61.2669V-0.600001H59.2229V1.4ZM60.2669 0.399999V20H62.2669V0.399999H60.2669ZM61.2669 19H59.5589V21H61.2669V19ZM60.3425 19.3788L46.8465 2.35477L45.2793 3.59723L58.7753 20.6212L60.3425 19.3788ZM46.0629 3.976H46.9589V1.976H46.0629V3.976ZM45.9589 2.976V20H47.9589V2.976H45.9589ZM46.9589 19H44.8869V21H46.9589V19ZM67.2563 20H66.2563V21H67.2563V20ZM67.2563 0.399999V-0.600001H66.2563V0.399999H67.2563ZM68.9643 0.399999L69.7473 -0.222023L69.447 -0.600001H68.9643V0.399999ZM82.4883 17.424V18.424H84.5598L83.2713 16.802L82.4883 17.424ZM81.5923 17.424H80.5923V18.424H81.5923V17.424ZM81.5923 0.399999V-0.600001H80.5923V0.399999H81.5923ZM83.6363 0.399999H84.6363V-0.600001H83.6363V0.399999ZM83.6363 20V21H84.6363V20H83.6363ZM81.9283 20L81.1446 20.6212L81.4449 21H81.9283V20ZM68.4323 2.976V1.976H66.3634L67.6486 3.59723L68.4323 2.976ZM69.3283 2.976H70.3283V1.976H69.3283V2.976ZM69.3283 20V21H70.3283V20H69.3283ZM68.2563 20V0.399999H66.2563V20H68.2563ZM67.2563 1.4H68.9643V-0.600001H67.2563V1.4ZM68.1813 1.02202L81.7053 18.046L83.2713 16.802L69.7473 -0.222023L68.1813 1.02202ZM82.4883 16.424H81.5923V18.424H82.4883V16.424ZM82.5923 17.424V0.399999H80.5923V17.424H82.5923ZM81.5923 1.4H83.6363V-0.600001H81.5923V1.4ZM82.6363 0.399999V20H84.6363V0.399999H82.6363ZM83.6363 19H81.9283V21H83.6363V19ZM82.7119 19.3788L69.2159 2.35477L67.6486 3.59723L81.1446 20.6212L82.7119 19.3788ZM68.4323 3.976H69.3283V1.976H68.4323V3.976ZM68.3283 2.976V20H70.3283V2.976H68.3283ZM69.3283 19H67.2563V21H69.3283V19ZM91.4736 9.164V8.164H90.4736V9.164H91.4736ZM101.834 9.164H102.834V8.164H101.834V9.164ZM101.834 10.928V11.928H102.834V10.928H101.834ZM91.4736 10.928H90.4736V11.928H91.4736V10.928ZM91.6976 18.208H90.6976V19.208H91.6976V18.208ZM103.486 18.208H104.486V17.208H103.486V18.208ZM103.486 20V21H104.486V20H103.486ZM89.6256 20H88.6256V21H89.6256V20ZM89.6256 0.399999V-0.600001H88.6256V0.399999H89.6256ZM103.066 0.399999H104.066V-0.600001H103.066V0.399999ZM103.066 2.192V3.192H104.066V2.192H103.066ZM91.6976 2.192V1.192H90.6976V2.192H91.6976ZM91.4736 10.164H101.834V8.164H91.4736V10.164ZM100.834 9.164V10.928H102.834V9.164H100.834ZM101.834 9.928H91.4736V11.928H101.834V9.928ZM92.4736 10.928V9.164H90.4736V10.928H92.4736ZM91.6976 19.208H103.486V17.208H91.6976V19.208ZM102.486 18.208V20H104.486V18.208H102.486ZM103.486 19H89.6256V21H103.486V19ZM90.6256 20V0.399999H88.6256V20H90.6256ZM89.6256 1.4H103.066V-0.600001H89.6256V1.4ZM102.066 0.399999V2.192H104.066V0.399999H102.066ZM103.066 1.192H91.6976V3.192H103.066V1.192ZM90.6976 2.192V18.208H92.6976V2.192H90.6976ZM104.986 20L104.182 19.4053L103.002 21H104.986V20ZM113.022 9.136H114.022V6.10251L112.218 8.54132L113.022 9.136ZM113.022 10.732L112.215 11.3225L114.022 13.7921V10.732H113.022ZM105.462 0.399999V-0.600001H103.491L104.655 0.990509L105.462 0.399999ZM107.842 0.399999L108.647 -0.19329L108.347 -0.600001H107.842V0.399999ZM114.198 9.024L114.228 10.0235L116.134 9.96578L115.003 8.43071L114.198 9.024ZM113.274 9.052L112.468 8.45996L111.253 10.1137L113.304 10.0515L113.274 9.052ZM119.63 0.399999V-0.600001H119.124L118.824 -0.192043L119.63 0.399999ZM121.87 0.399999L122.676 0.991458L123.844 -0.600001H121.87V0.399999ZM114.394 10.592H113.394V13.646L115.2 11.1835L114.394 10.592ZM114.394 9.136L115.199 8.54266L113.394 6.09398V9.136H114.394ZM122.402 20V21H124.381L123.207 19.4067L122.402 20ZM119.994 20L119.188 20.5925L119.488 21H119.994V20ZM113.218 10.788V9.788H111.241L112.412 11.3805L113.218 10.788ZM114.086 10.788L114.894 11.3773L116.053 9.788H114.086V10.788ZM107.366 20V21H107.874L108.174 20.5893L107.366 20ZM105.79 20.5947L113.826 9.73068L112.218 8.54132L104.182 19.4053L105.79 20.5947ZM112.022 9.136V10.732H114.022V9.136H112.022ZM113.829 10.1415L106.269 -0.190511L104.655 0.990509L112.215 11.3225L113.829 10.1415ZM105.462 1.4H107.842V-0.600001H105.462V1.4ZM107.037 0.993287L113.393 9.61729L115.003 8.43071L108.647 -0.19329L107.037 0.993287ZM114.168 8.02446L113.244 8.05246L113.304 10.0515L114.228 10.0235L114.168 8.02446ZM114.08 9.64404L120.436 0.992041L118.824 -0.192043L112.468 8.45996L114.08 9.64404ZM119.63 1.4H121.87V-0.600001H119.63V1.4ZM121.064 -0.191461L113.588 10.0005L115.2 11.1835L122.676 0.991458L121.064 -0.191461ZM115.394 10.592V9.136H113.394V10.592H115.394ZM113.589 9.72934L121.597 20.5933L123.207 19.4067L115.199 8.54266L113.589 9.72934ZM122.402 19H119.994V21H122.402V19ZM120.8 19.4075L114.024 10.1955L112.412 11.3805L119.188 20.5925L120.8 19.4075ZM113.218 11.788H114.086V9.788H113.218V11.788ZM113.278 10.1987L106.558 19.4107L108.174 20.5893L114.894 11.3773L113.278 10.1987ZM107.366 19H104.986V21H107.366V19ZM124.985 20H123.985V21H124.985V20ZM124.985 0.399999V-0.600001H123.985V0.399999H124.985ZM127.057 0.399999H128.057V-0.600001H127.057V0.399999ZM127.057 20V21H128.057V20H127.057ZM125.985 20V0.399999H123.985V20H125.985ZM124.985 1.4H127.057V-0.600001H124.985V1.4ZM126.057 0.399999V20H128.057V0.399999H126.057ZM127.057 19H124.985V21H127.057V19ZM137.479 19.44L137.105 20.3675L137.113 20.3709L137.121 20.3741L137.479 19.44ZM134.203 17.34L133.495 18.0471L133.503 18.0543L133.51 18.0614L134.203 17.34ZM132.047 14.176L131.123 14.5596L131.127 14.5682L131.13 14.5768L132.047 14.176ZM132.047 6.252L131.128 5.85636L131.125 5.8633L132.047 6.252ZM134.203 3.088L134.902 3.80236L134.903 3.80221L134.203 3.088ZM137.479 0.987999L137.84 1.92034L137.852 1.91552L137.479 0.987999ZM145.683 0.987999L145.309 1.9156L145.321 1.92027L145.683 0.987999ZM148.931 3.06L148.231 3.77439L148.238 3.78139L148.931 3.06ZM151.087 6.224L150.163 6.60764L150.168 6.61962L151.087 6.224ZM151.087 14.176L150.168 13.7803L150.163 13.7924L151.087 14.176ZM148.931 17.34L148.238 16.6186L148.231 16.6256L148.931 17.34ZM145.683 19.44L146.044 20.3723L146.056 20.3675L145.683 19.44ZM144.843 17.732L145.211 18.6617L145.22 18.6581L144.843 17.732ZM147.447 16.024L146.739 15.3169V15.3169L147.447 16.024ZM149.183 13.448L150.104 13.8376L150.106 13.8314L149.183 13.448ZM149.183 6.98L148.259 7.36339L148.262 7.36964L149.183 6.98ZM147.447 4.404L146.731 5.1021L146.739 5.11116L146.748 5.12L147.447 4.404ZM144.843 2.696L144.459 3.61959L144.47 3.62392L144.48 3.628L144.843 2.696ZM138.319 2.696L138.681 3.628L138.688 3.62511L138.696 3.62209L138.319 2.696ZM135.687 4.404L134.979 3.69689V3.69689L135.687 4.404ZM133.951 6.98L133.033 6.58189L133.03 6.59036L133.951 6.98ZM133.951 13.42L133.027 13.8034L133.03 13.8108L133.033 13.8181L133.951 13.42ZM135.687 16.024L134.971 16.7221L134.979 16.7312L134.988 16.74L135.687 16.024ZM138.319 17.732L137.941 18.6581L137.949 18.6611L137.956 18.664L138.319 17.732ZM141.595 19.168C140.232 19.168 138.982 18.9441 137.836 18.5059L137.121 20.3741C138.514 20.9066 140.008 21.168 141.595 21.168V19.168ZM137.852 18.5125C136.715 18.0542 135.732 17.4225 134.895 16.6186L133.51 18.0614C134.539 19.0495 135.741 19.8178 137.105 20.3675L137.852 18.5125ZM134.91 16.6329C134.084 15.8071 133.436 14.8566 132.963 13.7752L131.13 14.5768C131.703 15.8848 132.492 17.0435 133.495 18.0471L134.91 16.6329ZM132.97 13.7924C132.521 12.7116 132.291 11.5181 132.291 10.2H130.291C130.291 11.7565 130.564 13.2137 131.123 14.5596L132.97 13.7924ZM132.291 10.2C132.291 8.88166 132.521 7.69964 132.968 6.6407L131.125 5.8633C130.564 7.1937 130.291 8.64368 130.291 10.2H132.291ZM132.965 6.64762C133.438 5.54986 134.084 4.60443 134.902 3.80236L133.503 2.37364C132.492 3.36356 131.701 4.52747 131.128 5.85638L132.965 6.64762ZM134.903 3.80221C135.736 2.98494 136.713 2.35791 137.84 1.92027L137.117 0.0557337C135.743 0.588754 134.535 1.36173 133.503 2.37379L134.903 3.80221ZM137.852 1.91552C138.972 1.46429 140.216 1.232 141.595 1.232V-0.768001C139.987 -0.768001 138.486 -0.496287 137.105 0.0604806L137.852 1.91552ZM141.595 1.232C142.953 1.232 144.188 1.4637 145.309 1.91552L146.056 0.0604805C144.676 -0.495699 143.185 -0.768001 141.595 -0.768001V1.232ZM145.321 1.92027C146.451 2.35898 147.417 2.97764 148.231 3.77436L149.63 2.34564C148.614 1.35036 147.415 0.58768 146.044 0.0557338L145.321 1.92027ZM148.238 3.78139C149.07 4.58041 149.711 5.51955 150.163 6.60761L152.01 5.84039C151.454 4.50178 150.657 3.33159 149.623 2.33861L148.238 3.78139ZM150.168 6.61962C150.632 7.69737 150.871 8.88664 150.871 10.2H152.871C152.871 8.63869 152.586 7.17729 152.005 5.82838L150.168 6.61962ZM150.871 10.2C150.871 11.5134 150.632 12.7026 150.168 13.7804L152.005 14.5716C152.586 13.2227 152.871 11.7613 152.871 10.2H150.871ZM150.163 13.7924C149.711 14.8804 149.07 15.8196 148.238 16.6186L149.623 18.0614C150.657 17.0684 151.454 15.8982 152.01 14.5596L150.163 13.7924ZM148.231 16.6256C147.415 17.4251 146.444 18.0548 145.309 18.5125L146.056 20.3675C147.422 19.8172 148.617 19.0469 149.63 18.0544L148.231 16.6256ZM145.321 18.5077C144.196 18.9441 142.958 19.168 141.595 19.168V21.168C143.181 21.168 144.667 20.9066 146.044 20.3723L145.321 18.5077ZM141.595 19.32C142.883 19.32 144.093 19.1048 145.211 18.6617L144.474 16.8023C143.614 17.1432 142.658 17.32 141.595 17.32V19.32ZM145.22 18.6581C146.344 18.2001 147.326 17.5587 148.154 16.7311L146.739 15.3169C146.111 15.9453 145.357 16.4426 144.465 16.8059L145.22 18.6581ZM148.154 16.7311C148.991 15.8936 149.643 14.9271 150.104 13.8376L148.262 13.0584C147.901 13.9102 147.395 14.6611 146.739 15.3169L148.154 16.7311ZM150.106 13.8314C150.572 12.7091 150.799 11.4946 150.799 10.2H148.799C148.799 11.2574 148.615 12.2082 148.259 13.0646L150.106 13.8314ZM150.799 10.2C150.799 8.90565 150.572 7.69783 150.104 6.59036L148.262 7.36964C148.614 8.2035 148.799 9.14235 148.799 10.2H150.799ZM150.106 6.59662C149.645 5.48578 148.991 4.51307 148.145 3.688L146.748 5.12C147.396 5.75093 147.899 6.49555 148.259 7.36338L150.106 6.59662ZM148.163 3.7059C147.331 2.85307 146.341 2.20583 145.205 1.76399L144.48 3.628C145.36 3.97017 146.106 4.4616 146.731 5.1021L148.163 3.7059ZM145.226 1.77241C144.104 1.30657 142.889 1.08 141.595 1.08V3.08C142.652 3.08 143.603 3.2641 144.459 3.61959L145.226 1.77241ZM141.595 1.08C140.3 1.08 139.078 1.30662 137.941 1.76991L138.696 3.62209C139.575 3.26404 140.537 3.08 141.595 3.08V1.08ZM137.956 1.76399C136.822 2.205 135.827 2.84976 134.979 3.69689L136.394 5.11111C137.04 4.4649 137.799 3.971 138.681 3.628L137.956 1.76399ZM134.979 3.69689C134.158 4.51796 133.51 5.48283 133.033 6.58191L134.868 7.37809C135.25 6.4985 135.759 5.74604 136.394 5.11111L134.979 3.69689ZM133.03 6.59036C132.561 7.69783 132.335 8.90565 132.335 10.2H134.335C134.335 9.14235 134.519 8.2035 134.872 7.36964L133.03 6.59036ZM132.335 10.2C132.335 11.4782 132.562 12.683 133.027 13.8034L134.874 13.0366C134.518 12.1783 134.335 11.2364 134.335 10.2H132.335ZM133.033 13.8181C133.509 14.915 134.155 15.8855 134.971 16.7221L136.403 15.3259C135.762 14.6692 135.251 13.9037 134.868 13.0219L133.033 13.8181ZM134.988 16.74C135.832 17.562 136.819 18.2009 137.941 18.6581L138.696 16.8059C137.802 16.4418 137.035 15.942 136.385 15.308L134.988 16.74ZM137.956 18.664C139.089 19.1047 140.305 19.32 141.595 19.32V17.32C140.532 17.32 139.564 17.1433 138.681 16.8L137.956 18.664ZM156.107 20H155.107V21H156.107V20ZM156.107 0.399999V-0.600001H155.107V0.399999H156.107ZM157.815 0.399999L158.598 -0.222023L158.298 -0.600001H157.815V0.399999ZM171.339 17.424V18.424H173.41L172.122 16.802L171.339 17.424ZM170.443 17.424H169.443V18.424H170.443V17.424ZM170.443 0.399999V-0.600001H169.443V0.399999H170.443ZM172.487 0.399999H173.487V-0.600001H172.487V0.399999ZM172.487 20V21H173.487V20H172.487ZM170.779 20L169.995 20.6212L170.296 21H170.779V20ZM157.283 2.976V1.976H155.214L156.499 3.59723L157.283 2.976ZM158.179 2.976H159.179V1.976H158.179V2.976ZM158.179 20V21H159.179V20H158.179ZM157.107 20V0.399999H155.107V20H157.107ZM156.107 1.4H157.815V-0.600001H156.107V1.4ZM157.032 1.02202L170.556 18.046L172.122 16.802L158.598 -0.222023L157.032 1.02202ZM171.339 16.424H170.443V18.424H171.339V16.424ZM171.443 17.424V0.399999H169.443V17.424H171.443ZM170.443 1.4H172.487V-0.600001H170.443V1.4ZM171.487 0.399999V20H173.487V0.399999H171.487ZM172.487 19H170.779V21H172.487V19ZM171.562 19.3788L158.066 2.35477L156.499 3.59723L169.995 20.6212L171.562 19.3788ZM157.283 3.976H158.179V1.976H157.283V3.976ZM157.179 2.976V20H159.179V2.976H157.179ZM158.179 19H156.107V21H158.179V19Z" fill="black" fill-opacity="0.2"/>
<defs>
<linearGradient id="paint0_linear_525_4699" x1="87.5" y1="0" x2="87.5" y2="20" gradientUnits="userSpaceOnUse">
<stop offset="0.390625" stop-color="#D08EFF" stop-opacity="0.41"/>
<stop offset="0.59375"/>
</linearGradient>
<linearGradient id="paint1_linear_525_4699" x1="87.5" y1="0" x2="87.5" y2="20" gradientUnits="userSpaceOnUse">
<stop offset="0.054898"/>
<stop offset="0.476798" stop-color="white"/>
<stop offset="0.971619" stop-color="#9F14C1" stop-opacity="0"/>
</linearGradient>
<linearGradient id="paint2_linear_525_4699" x1="87.5" y1="0" x2="87.5" y2="20" gradientUnits="userSpaceOnUse">
<stop offset="0.179905" stop-color="#BD2DCA"/>
<stop offset="0.419503" stop-color="#F2E7E7" stop-opacity="0"/>
</linearGradient>
</defs>
</svg>
