<svg width="177" height="21" viewBox="0 0 177 21" fill="none" xmlns="http://www.w3.org/2000/svg">
<path d="M0.120673 20V0.399999H2.19267V20H0.120673ZM8.16189 20V0.399999H9.86989L23.3939 17.424H22.4979V0.399999H24.5419V20H22.8339L9.33789 2.976H10.2339V20H8.16189ZM35.9352 20.168C34.4792 20.168 33.0792 19.9347 31.7352 19.468C30.4099 18.9827 29.3832 18.3667 28.6552 17.62L29.4672 16.024C30.1579 16.696 31.0819 17.2653 32.2392 17.732C33.4152 18.18 34.6472 18.404 35.9352 18.404C37.1672 18.404 38.1659 18.2547 38.9312 17.956C39.7152 17.6387 40.2846 17.2187 40.6392 16.696C41.0126 16.1733 41.1992 15.5947 41.1992 14.96C41.1992 14.1947 40.9752 13.5787 40.5272 13.112C40.0979 12.6453 39.5286 12.2813 38.8192 12.02C38.1099 11.74 37.3259 11.4973 36.4672 11.292C35.6086 11.0867 34.7499 10.872 33.8912 10.648C33.0326 10.4053 32.2392 10.088 31.5112 9.696C30.8019 9.304 30.2232 8.79067 29.7752 8.156C29.3459 7.50267 29.1312 6.65333 29.1312 5.608C29.1312 4.63733 29.3832 3.75067 29.8872 2.948C30.4099 2.12667 31.2032 1.47333 32.2672 0.987999C33.3312 0.483999 34.6939 0.231999 36.3552 0.231999C37.4566 0.231999 38.5486 0.390666 39.6312 0.708C40.7139 1.00667 41.6472 1.42667 42.4312 1.968L41.7312 3.62C40.8912 3.06 39.9952 2.64933 39.0432 2.388C38.1099 2.12667 37.2046 1.996 36.3272 1.996C35.1512 1.996 34.1806 2.15467 33.4152 2.472C32.6499 2.78933 32.0806 3.21867 31.7072 3.76C31.3526 4.28267 31.1752 4.88 31.1752 5.552C31.1752 6.31733 31.3899 6.93333 31.8192 7.4C32.2672 7.86667 32.8459 8.23067 33.5552 8.492C34.2832 8.75333 35.0766 8.98667 35.9352 9.192C36.7939 9.39733 37.6432 9.62133 38.4832 9.864C39.3419 10.1067 40.1259 10.424 40.8352 10.816C41.5632 11.1893 42.1419 11.6933 42.5712 12.328C43.0192 12.9627 43.2432 13.7933 43.2432 14.82C43.2432 15.772 42.9819 16.6587 42.4592 17.48C41.9366 18.2827 41.1339 18.936 40.0512 19.44C38.9872 19.9253 37.6152 20.168 35.9352 20.168ZM55.8618 20.168C54.3871 20.168 53.0245 19.9253 51.7738 19.44C50.5231 18.936 49.4405 18.236 48.5258 17.34C47.6111 16.444 46.8925 15.3893 46.3698 14.176C45.8658 12.9627 45.6138 11.6373 45.6138 10.2C45.6138 8.76267 45.8658 7.43733 46.3698 6.224C46.8925 5.01067 47.6111 3.956 48.5258 3.06C49.4591 2.164 50.5511 1.47333 51.8018 0.987999C53.0525 0.483999 54.4151 0.231999 55.8898 0.231999C57.3085 0.231999 58.6431 0.474666 59.8938 0.96C61.1445 1.42667 62.1991 2.136 63.0578 3.088L61.7418 4.404C60.9391 3.58267 60.0525 2.99467 59.0818 2.64C58.1111 2.26667 57.0658 2.08 55.9458 2.08C54.7698 2.08 53.6778 2.28533 52.6698 2.696C51.6618 3.088 50.7845 3.65733 50.0378 4.404C49.2911 5.132 48.7031 5.99067 48.2738 6.98C47.8631 7.95067 47.6578 9.024 47.6578 10.2C47.6578 11.376 47.8631 12.4587 48.2738 13.448C48.7031 14.4187 49.2911 15.2773 50.0378 16.024C50.7845 16.752 51.6618 17.3213 52.6698 17.732C53.6778 18.124 54.7698 18.32 55.9458 18.32C57.0658 18.32 58.1111 18.1333 59.0818 17.76C60.0525 17.3867 60.9391 16.7893 61.7418 15.968L63.0578 17.284C62.1991 18.236 61.1445 18.9547 59.8938 19.44C58.6431 19.9253 57.2991 20.168 55.8618 20.168ZM67.0668 20V0.399999H74.4028C76.0641 0.399999 77.4921 0.670666 78.6868 1.212C79.8815 1.73467 80.7961 2.5 81.4308 3.508C82.0841 4.49733 82.4108 5.70133 82.4108 7.12C82.4108 8.50133 82.0841 9.696 81.4308 10.704C80.7961 11.6933 79.8815 12.4587 78.6868 13C77.4921 13.5227 76.0641 13.784 74.4028 13.784H68.2148L69.1388 12.832V20H67.0668ZM80.4508 20L75.4108 12.888H77.6508L82.7188 20H80.4508ZM69.1388 13L68.2148 12.02H74.3468C76.3068 12.02 77.7908 11.5907 78.7988 10.732C79.8255 9.87333 80.3388 8.66933 80.3388 7.12C80.3388 5.552 79.8255 4.33867 78.7988 3.48C77.7908 2.62133 76.3068 2.192 74.3468 2.192H68.2148L69.1388 1.212V13ZM86.8932 20V0.399999H88.9652V20H86.8932ZM94.9344 20V0.399999H102.27C103.932 0.399999 105.36 0.670666 106.554 1.212C107.749 1.73467 108.664 2.5 109.298 3.508C109.952 4.49733 110.278 5.70133 110.278 7.12C110.278 8.50133 109.952 9.696 109.298 10.704C108.664 11.6933 107.749 12.4587 106.554 13C105.36 13.5413 103.932 13.812 102.27 13.812H96.0824L97.0064 12.832V20H94.9344ZM97.0064 13L96.0824 11.992H102.214C104.174 11.992 105.658 11.572 106.666 10.732C107.693 9.87333 108.206 8.66933 108.206 7.12C108.206 5.552 107.693 4.33867 106.666 3.48C105.658 2.62133 104.174 2.192 102.214 2.192H96.0824L97.0064 1.212V13ZM117.502 20V2.192H110.614V0.399999H126.462V2.192H119.574V20H117.502ZM129.364 20V0.399999H131.436V20H129.364ZM145.974 20.168C144.499 20.168 143.127 19.9253 141.858 19.44C140.607 18.936 139.515 18.236 138.582 17.34C137.667 16.4253 136.948 15.3707 136.426 14.176C135.922 12.9627 135.67 11.6373 135.67 10.2C135.67 8.76267 135.922 7.44667 136.426 6.252C136.948 5.03867 137.667 3.984 138.582 3.088C139.515 2.17333 140.607 1.47333 141.858 0.987999C143.108 0.483999 144.48 0.231999 145.974 0.231999C147.448 0.231999 148.811 0.483999 150.062 0.987999C151.312 1.47333 152.395 2.164 153.31 3.06C154.243 3.956 154.962 5.01067 155.466 6.224C155.988 7.43733 156.25 8.76267 156.25 10.2C156.25 11.6373 155.988 12.9627 155.466 14.176C154.962 15.3893 154.243 16.444 153.31 17.34C152.395 18.236 151.312 18.936 150.062 19.44C148.811 19.9253 147.448 20.168 145.974 20.168ZM145.974 18.32C147.15 18.32 148.232 18.124 149.222 17.732C150.23 17.3213 151.098 16.752 151.826 16.024C152.572 15.2773 153.151 14.4187 153.562 13.448C153.972 12.4587 154.178 11.376 154.178 10.2C154.178 9.024 153.972 7.95067 153.562 6.98C153.151 5.99067 152.572 5.132 151.826 4.404C151.098 3.65733 150.23 3.088 149.222 2.696C148.232 2.28533 147.15 2.08 145.974 2.08C144.798 2.08 143.706 2.28533 142.698 2.696C141.69 3.088 140.812 3.65733 140.066 4.404C139.338 5.132 138.759 5.99067 138.33 6.98C137.919 7.95067 137.714 9.024 137.714 10.2C137.714 11.3573 137.919 12.4307 138.33 13.42C138.759 14.4093 139.338 15.2773 140.066 16.024C140.812 16.752 141.69 17.3213 142.698 17.732C143.706 18.124 144.798 18.32 145.974 18.32ZM160.486 20V0.399999H162.194L175.718 17.424H174.822V0.399999H176.866V20H175.158L161.662 2.976H162.558V20H160.486Z" fill="url(#paint0_linear_525_4700)"/>
<path d="M0.120673 20V0.399999H2.19267V20H0.120673ZM8.16189 20V0.399999H9.86989L23.3939 17.424H22.4979V0.399999H24.5419V20H22.8339L9.33789 2.976H10.2339V20H8.16189ZM35.9352 20.168C34.4792 20.168 33.0792 19.9347 31.7352 19.468C30.4099 18.9827 29.3832 18.3667 28.6552 17.62L29.4672 16.024C30.1579 16.696 31.0819 17.2653 32.2392 17.732C33.4152 18.18 34.6472 18.404 35.9352 18.404C37.1672 18.404 38.1659 18.2547 38.9312 17.956C39.7152 17.6387 40.2846 17.2187 40.6392 16.696C41.0126 16.1733 41.1992 15.5947 41.1992 14.96C41.1992 14.1947 40.9752 13.5787 40.5272 13.112C40.0979 12.6453 39.5286 12.2813 38.8192 12.02C38.1099 11.74 37.3259 11.4973 36.4672 11.292C35.6086 11.0867 34.7499 10.872 33.8912 10.648C33.0326 10.4053 32.2392 10.088 31.5112 9.696C30.8019 9.304 30.2232 8.79067 29.7752 8.156C29.3459 7.50267 29.1312 6.65333 29.1312 5.608C29.1312 4.63733 29.3832 3.75067 29.8872 2.948C30.4099 2.12667 31.2032 1.47333 32.2672 0.987999C33.3312 0.483999 34.6939 0.231999 36.3552 0.231999C37.4566 0.231999 38.5486 0.390666 39.6312 0.708C40.7139 1.00667 41.6472 1.42667 42.4312 1.968L41.7312 3.62C40.8912 3.06 39.9952 2.64933 39.0432 2.388C38.1099 2.12667 37.2046 1.996 36.3272 1.996C35.1512 1.996 34.1806 2.15467 33.4152 2.472C32.6499 2.78933 32.0806 3.21867 31.7072 3.76C31.3526 4.28267 31.1752 4.88 31.1752 5.552C31.1752 6.31733 31.3899 6.93333 31.8192 7.4C32.2672 7.86667 32.8459 8.23067 33.5552 8.492C34.2832 8.75333 35.0766 8.98667 35.9352 9.192C36.7939 9.39733 37.6432 9.62133 38.4832 9.864C39.3419 10.1067 40.1259 10.424 40.8352 10.816C41.5632 11.1893 42.1419 11.6933 42.5712 12.328C43.0192 12.9627 43.2432 13.7933 43.2432 14.82C43.2432 15.772 42.9819 16.6587 42.4592 17.48C41.9366 18.2827 41.1339 18.936 40.0512 19.44C38.9872 19.9253 37.6152 20.168 35.9352 20.168ZM55.8618 20.168C54.3871 20.168 53.0245 19.9253 51.7738 19.44C50.5231 18.936 49.4405 18.236 48.5258 17.34C47.6111 16.444 46.8925 15.3893 46.3698 14.176C45.8658 12.9627 45.6138 11.6373 45.6138 10.2C45.6138 8.76267 45.8658 7.43733 46.3698 6.224C46.8925 5.01067 47.6111 3.956 48.5258 3.06C49.4591 2.164 50.5511 1.47333 51.8018 0.987999C53.0525 0.483999 54.4151 0.231999 55.8898 0.231999C57.3085 0.231999 58.6431 0.474666 59.8938 0.96C61.1445 1.42667 62.1991 2.136 63.0578 3.088L61.7418 4.404C60.9391 3.58267 60.0525 2.99467 59.0818 2.64C58.1111 2.26667 57.0658 2.08 55.9458 2.08C54.7698 2.08 53.6778 2.28533 52.6698 2.696C51.6618 3.088 50.7845 3.65733 50.0378 4.404C49.2911 5.132 48.7031 5.99067 48.2738 6.98C47.8631 7.95067 47.6578 9.024 47.6578 10.2C47.6578 11.376 47.8631 12.4587 48.2738 13.448C48.7031 14.4187 49.2911 15.2773 50.0378 16.024C50.7845 16.752 51.6618 17.3213 52.6698 17.732C53.6778 18.124 54.7698 18.32 55.9458 18.32C57.0658 18.32 58.1111 18.1333 59.0818 17.76C60.0525 17.3867 60.9391 16.7893 61.7418 15.968L63.0578 17.284C62.1991 18.236 61.1445 18.9547 59.8938 19.44C58.6431 19.9253 57.2991 20.168 55.8618 20.168ZM67.0668 20V0.399999H74.4028C76.0641 0.399999 77.4921 0.670666 78.6868 1.212C79.8815 1.73467 80.7961 2.5 81.4308 3.508C82.0841 4.49733 82.4108 5.70133 82.4108 7.12C82.4108 8.50133 82.0841 9.696 81.4308 10.704C80.7961 11.6933 79.8815 12.4587 78.6868 13C77.4921 13.5227 76.0641 13.784 74.4028 13.784H68.2148L69.1388 12.832V20H67.0668ZM80.4508 20L75.4108 12.888H77.6508L82.7188 20H80.4508ZM69.1388 13L68.2148 12.02H74.3468C76.3068 12.02 77.7908 11.5907 78.7988 10.732C79.8255 9.87333 80.3388 8.66933 80.3388 7.12C80.3388 5.552 79.8255 4.33867 78.7988 3.48C77.7908 2.62133 76.3068 2.192 74.3468 2.192H68.2148L69.1388 1.212V13ZM86.8932 20V0.399999H88.9652V20H86.8932ZM94.9344 20V0.399999H102.27C103.932 0.399999 105.36 0.670666 106.554 1.212C107.749 1.73467 108.664 2.5 109.298 3.508C109.952 4.49733 110.278 5.70133 110.278 7.12C110.278 8.50133 109.952 9.696 109.298 10.704C108.664 11.6933 107.749 12.4587 106.554 13C105.36 13.5413 103.932 13.812 102.27 13.812H96.0824L97.0064 12.832V20H94.9344ZM97.0064 13L96.0824 11.992H102.214C104.174 11.992 105.658 11.572 106.666 10.732C107.693 9.87333 108.206 8.66933 108.206 7.12C108.206 5.552 107.693 4.33867 106.666 3.48C105.658 2.62133 104.174 2.192 102.214 2.192H96.0824L97.0064 1.212V13ZM117.502 20V2.192H110.614V0.399999H126.462V2.192H119.574V20H117.502ZM129.364 20V0.399999H131.436V20H129.364ZM145.974 20.168C144.499 20.168 143.127 19.9253 141.858 19.44C140.607 18.936 139.515 18.236 138.582 17.34C137.667 16.4253 136.948 15.3707 136.426 14.176C135.922 12.9627 135.67 11.6373 135.67 10.2C135.67 8.76267 135.922 7.44667 136.426 6.252C136.948 5.03867 137.667 3.984 138.582 3.088C139.515 2.17333 140.607 1.47333 141.858 0.987999C143.108 0.483999 144.48 0.231999 145.974 0.231999C147.448 0.231999 148.811 0.483999 150.062 0.987999C151.312 1.47333 152.395 2.164 153.31 3.06C154.243 3.956 154.962 5.01067 155.466 6.224C155.988 7.43733 156.25 8.76267 156.25 10.2C156.25 11.6373 155.988 12.9627 155.466 14.176C154.962 15.3893 154.243 16.444 153.31 17.34C152.395 18.236 151.312 18.936 150.062 19.44C148.811 19.9253 147.448 20.168 145.974 20.168ZM145.974 18.32C147.15 18.32 148.232 18.124 149.222 17.732C150.23 17.3213 151.098 16.752 151.826 16.024C152.572 15.2773 153.151 14.4187 153.562 13.448C153.972 12.4587 154.178 11.376 154.178 10.2C154.178 9.024 153.972 7.95067 153.562 6.98C153.151 5.99067 152.572 5.132 151.826 4.404C151.098 3.65733 150.23 3.088 149.222 2.696C148.232 2.28533 147.15 2.08 145.974 2.08C144.798 2.08 143.706 2.28533 142.698 2.696C141.69 3.088 140.812 3.65733 140.066 4.404C139.338 5.132 138.759 5.99067 138.33 6.98C137.919 7.95067 137.714 9.024 137.714 10.2C137.714 11.3573 137.919 12.4307 138.33 13.42C138.759 14.4093 139.338 15.2773 140.066 16.024C140.812 16.752 141.69 17.3213 142.698 17.732C143.706 18.124 144.798 18.32 145.974 18.32ZM160.486 20V0.399999H162.194L175.718 17.424H174.822V0.399999H176.866V20H175.158L161.662 2.976H162.558V20H160.486Z" fill="url(#paint1_linear_525_4700)"/>
<path d="M0.120673 20H-0.879327V21H0.120673V20ZM0.120673 0.399999V-0.600001H-0.879327V0.399999H0.120673ZM2.19267 0.399999H3.19267V-0.600001H2.19267V0.399999ZM2.19267 20V21H3.19267V20H2.19267ZM1.12067 20V0.399999H-0.879327V20H1.12067ZM0.120673 1.4H2.19267V-0.600001H0.120673V1.4ZM1.19267 0.399999V20H3.19267V0.399999H1.19267ZM2.19267 19H0.120673V21H2.19267V19ZM8.16189 20H7.16189V21H8.16189V20ZM8.16189 0.399999V-0.600001H7.16189V0.399999H8.16189ZM9.86989 0.399999L10.6529 -0.222023L10.3526 -0.600001H9.86989V0.399999ZM23.3939 17.424V18.424H25.4654L24.1769 16.802L23.3939 17.424ZM22.4979 17.424H21.4979V18.424H22.4979V17.424ZM22.4979 0.399999V-0.600001H21.4979V0.399999H22.4979ZM24.5419 0.399999H25.5419V-0.600001H24.5419V0.399999ZM24.5419 20V21H25.5419V20H24.5419ZM22.8339 20L22.0503 20.6212L22.3505 21H22.8339V20ZM9.33789 2.976V1.976H7.26901L8.55426 3.59723L9.33789 2.976ZM10.2339 2.976H11.2339V1.976H10.2339V2.976ZM10.2339 20V21H11.2339V20H10.2339ZM9.16189 20V0.399999H7.16189V20H9.16189ZM8.16189 1.4H9.86989V-0.600001H8.16189V1.4ZM9.08689 1.02202L22.6109 18.046L24.1769 16.802L10.6529 -0.222023L9.08689 1.02202ZM23.3939 16.424H22.4979V18.424H23.3939V16.424ZM23.4979 17.424V0.399999H21.4979V17.424H23.4979ZM22.4979 1.4H24.5419V-0.600001H22.4979V1.4ZM23.5419 0.399999V20H25.5419V0.399999H23.5419ZM24.5419 19H22.8339V21H24.5419V19ZM23.6175 19.3788L10.1215 2.35477L8.55426 3.59723L22.0503 20.6212L23.6175 19.3788ZM9.33789 3.976H10.2339V1.976H9.33789V3.976ZM9.23389 2.976V20H11.2339V2.976H9.23389ZM10.2339 19H8.16189V21H10.2339V19ZM31.7352 19.468L31.3914 20.407L31.3993 20.4099L31.4072 20.4127L31.7352 19.468ZM28.6552 17.62L27.764 17.1665L27.4391 17.8051L27.9392 18.3181L28.6552 17.62ZM29.4672 16.024L30.1646 15.3073L29.1916 14.3605L28.576 15.5705L29.4672 16.024ZM32.2392 17.732L31.8653 18.6594L31.8742 18.6631L31.8832 18.6665L32.2392 17.732ZM38.9312 17.956L39.2948 18.8877L39.3064 18.8829L38.9312 17.956ZM40.6392 16.696L39.8255 16.1148L39.8185 16.1245L39.8118 16.1345L40.6392 16.696ZM40.5272 13.112L39.7913 13.7891L39.7985 13.7969L39.8058 13.8045L40.5272 13.112ZM38.8192 12.02L38.4521 12.9502L38.4627 12.9544L38.4735 12.9583L38.8192 12.02ZM33.8912 10.648L33.6193 11.6103L33.629 11.6131L33.6388 11.6156L33.8912 10.648ZM31.5112 9.696L31.0275 10.5713L31.0371 10.5765L31.5112 9.696ZM29.7752 8.156L28.9395 8.70518L28.9487 8.71909L28.9583 8.73268L29.7752 8.156ZM29.8872 2.948L29.0436 2.41111L29.0403 2.41623L29.8872 2.948ZM32.2672 0.987999L32.6822 1.89782L32.6888 1.89483L32.6953 1.89174L32.2672 0.987999ZM39.6312 0.708L39.35 1.66763L39.3576 1.66987L39.3653 1.67199L39.6312 0.708ZM42.4312 1.968L43.352 2.35815L43.6698 1.60801L42.9994 1.1451L42.4312 1.968ZM41.7312 3.62L41.1765 4.45205L42.181 5.12169L42.652 4.01015L41.7312 3.62ZM39.0432 2.388L38.7736 3.35098L38.7785 3.35233L39.0432 2.388ZM33.4152 2.472L33.0322 1.54826V1.54826L33.4152 2.472ZM31.7072 3.76L30.884 3.19225L30.8798 3.1985L31.7072 3.76ZM31.8192 7.4L31.0833 8.07706L31.0905 8.08487L31.0978 8.09253L31.8192 7.4ZM33.5552 8.492L33.2095 9.43038L33.2174 9.43319L33.5552 8.492ZM35.9352 9.192L35.7027 10.1646L35.9352 9.192ZM38.4832 9.864L38.2057 10.8247L38.2113 10.8263L38.4832 9.864ZM40.8352 10.816L40.3515 11.6912L40.3651 11.6987L40.3789 11.7058L40.8352 10.816ZM42.5712 12.328L41.743 12.8883L41.7485 12.8966L41.7543 12.9047L42.5712 12.328ZM42.4592 17.48L43.2973 18.0257L43.3029 18.0169L42.4592 17.48ZM40.0512 19.44L40.4663 20.3498L40.4733 20.3466L40.0512 19.44ZM35.9352 19.168C34.5882 19.168 33.2993 18.9525 32.0632 18.5233L31.4072 20.4127C32.8592 20.9168 34.3702 21.168 35.9352 21.168V19.168ZM32.0791 18.529C30.8472 18.0779 29.9647 17.5305 29.3712 16.9219L27.9392 18.3181C28.8018 19.2028 29.9726 19.8875 31.3914 20.407L32.0791 18.529ZM29.5465 18.0735L30.3585 16.4775L28.576 15.5705L27.764 17.1665L29.5465 18.0735ZM28.7699 16.7407C29.5767 17.5257 30.6214 18.1579 31.8653 18.6594L32.6132 16.8046C31.5424 16.3728 30.7391 15.8663 30.1646 15.3073L28.7699 16.7407ZM31.8832 18.6665C33.1756 19.1588 34.5285 19.404 35.9352 19.404V17.404C34.766 17.404 33.6548 17.2012 32.5952 16.7975L31.8832 18.6665ZM35.9352 19.404C37.2355 19.404 38.3708 19.2482 39.2948 18.8876L38.5677 17.0244C37.961 17.2612 37.0989 17.404 35.9352 17.404V19.404ZM39.3064 18.8829C40.2131 18.516 40.9689 17.9912 41.4667 17.2575L39.8118 16.1345C39.6003 16.4462 39.2174 16.7614 38.556 17.0291L39.3064 18.8829ZM41.453 17.2772C41.9459 16.5872 42.1992 15.8058 42.1992 14.96H40.1992C40.1992 15.3836 40.0793 15.7595 39.8255 16.1148L41.453 17.2772ZM42.1992 14.96C42.1992 13.987 41.9076 13.1059 41.2486 12.4195L39.8058 13.8045C40.0429 14.0515 40.1992 14.4023 40.1992 14.96H42.1992ZM41.2632 12.4349C40.7075 11.831 39.9948 11.3874 39.1649 11.0817L38.4735 12.9583C39.0623 13.1753 39.4883 13.4597 39.7913 13.7891L41.2632 12.4349ZM39.1864 11.0898C38.4271 10.7901 37.5973 10.534 36.6998 10.3194L36.2347 12.2646C37.0545 12.4606 37.7927 12.6899 38.4521 12.9502L39.1864 11.0898ZM36.6998 10.3194C35.8478 10.1157 34.9958 9.90267 34.1437 9.68038L33.6388 11.6156C34.504 11.8413 35.3693 12.0577 36.2347 12.2646L36.6998 10.3194ZM34.1632 9.68569C33.3692 9.4613 32.6443 9.17036 31.9853 8.81553L31.0371 10.5765C31.8342 11.0056 32.6959 11.3494 33.6193 11.6103L34.1632 9.68569ZM31.9949 8.82076C31.4119 8.49858 30.9493 8.0852 30.5922 7.57932L28.9583 8.73268C29.4972 9.49614 30.1919 10.1094 31.0275 10.5712L31.9949 8.82076ZM30.6109 7.60682C30.3194 7.16312 30.1312 6.52249 30.1312 5.608H28.1312C28.1312 6.78417 28.3724 7.84221 28.9395 8.70518L30.6109 7.60682ZM30.1312 5.608C30.1312 4.82067 30.3327 4.1191 30.7341 3.47977L29.0403 2.41623C28.4338 3.38223 28.1312 4.454 28.1312 5.608H30.1312ZM30.7309 3.48487C31.1304 2.85701 31.7584 2.31924 32.6822 1.89782L31.8522 0.0781801C30.6481 0.627423 29.6894 1.39632 29.0436 2.41112L30.7309 3.48487ZM32.6953 1.89174C33.5822 1.47162 34.7851 1.232 36.3552 1.232V-0.768001C34.6027 -0.768001 33.0802 -0.503626 31.8391 0.0842617L32.6953 1.89174ZM36.3552 1.232C37.3591 1.232 38.3564 1.37641 39.35 1.66763L39.9125 -0.251629C38.7407 -0.59508 37.5541 -0.768001 36.3552 -0.768001V1.232ZM39.3653 1.67199C40.3589 1.94608 41.186 2.32341 41.863 2.7909L42.9994 1.1451C42.1085 0.529917 41.0689 0.0672535 39.8972 -0.255993L39.3653 1.67199ZM41.5105 1.57785L40.8105 3.22985L42.652 4.01015L43.352 2.35815L41.5105 1.57785ZM42.2859 2.78795C41.359 2.17 40.3654 1.71395 39.3079 1.42367L38.7785 3.35233C39.6251 3.58471 40.4235 3.95 41.1765 4.45205L42.2859 2.78795ZM39.3129 1.42504C38.3008 1.14167 37.3047 0.996 36.3272 0.996V2.996C37.1045 2.996 37.919 3.11166 38.7736 3.35096L39.3129 1.42504ZM36.3272 0.996C35.0707 0.996 33.9585 1.16417 33.0322 1.54826L33.7982 3.39574C34.4026 3.14516 35.2317 2.996 36.3272 2.996V0.996ZM33.0322 1.54826C32.135 1.92028 31.392 2.45574 30.884 3.19227L32.5304 4.32773C32.7692 3.98159 33.1648 3.65839 33.7982 3.39574L33.0322 1.54826ZM30.8798 3.1985C30.4053 3.89765 30.1752 4.69325 30.1752 5.552H32.1752C32.1752 5.06674 32.2998 4.66768 32.5347 4.3215L30.8798 3.1985ZM30.1752 5.552C30.1752 6.51339 30.4504 7.38912 31.0833 8.07706L32.5552 6.72294C32.3294 6.47755 32.1752 6.12127 32.1752 5.552H30.1752ZM31.0978 8.09253C31.6671 8.68553 32.3818 9.1254 33.2095 9.43034L33.9009 7.55366C33.31 7.33593 32.8673 7.0478 32.5406 6.70747L31.0978 8.09253ZM33.2174 9.43319C33.9843 9.7085 34.8132 9.95189 35.7027 10.1646L36.1678 8.21942C35.3399 8.02145 34.5822 7.79817 33.8931 7.55081L33.2174 9.43319ZM35.7027 10.1646C36.5464 10.3663 37.3807 10.5864 38.2057 10.8247L38.7608 8.90329C37.9057 8.65627 37.0414 8.42832 36.1678 8.21942L35.7027 10.1646ZM38.2113 10.8263C39.0036 11.0502 39.7156 11.3398 40.3515 11.6912L41.3189 9.94076C40.5362 9.50822 39.6802 9.16311 38.7552 8.90169L38.2113 10.8263ZM40.3789 11.7058C40.9676 12.0077 41.4143 12.4024 41.743 12.8883L43.3995 11.7677C42.8695 10.9842 42.1588 10.3709 41.2915 9.92618L40.3789 11.7058ZM41.7543 12.9047C42.0502 13.3239 42.2432 13.9342 42.2432 14.82H44.2432C44.2432 13.6525 43.9883 12.6014 43.3882 11.7513L41.7543 12.9047ZM42.2432 14.82C42.2432 15.5773 42.0386 16.2784 41.6156 16.9431L43.3029 18.0169C43.9252 17.0389 44.2432 15.9667 44.2432 14.82H42.2432ZM41.6212 16.9343C41.2232 17.5456 40.5839 18.089 39.6292 18.5334L40.4733 20.3466C41.6839 19.783 42.6499 19.0197 43.2972 18.0257L41.6212 16.9343ZM39.6362 18.5302C38.7465 18.936 37.5299 19.168 35.9352 19.168V21.168C37.7006 21.168 39.228 20.9146 40.4662 20.3498L39.6362 18.5302ZM51.7738 19.44L51.4 20.3676L51.412 20.3723L51.7738 19.44ZM48.5258 17.34L47.826 18.0544L48.5258 17.34ZM46.3698 14.176L45.4462 14.5596L45.4514 14.5716L46.3698 14.176ZM46.3698 6.224L45.4513 5.82834L45.4463 5.84039L46.3698 6.224ZM48.5258 3.06L47.8332 2.33858L47.826 2.34564L48.5258 3.06ZM51.8018 0.987999L52.1636 1.92034L52.1756 1.91552L51.8018 0.987999ZM59.8938 0.96L59.532 1.89234L59.5442 1.8969L59.8938 0.96ZM63.0578 3.088L63.7649 3.79511L64.4365 3.12351L63.8004 2.41823L63.0578 3.088ZM61.7418 4.404L61.0266 5.10293L61.7336 5.82639L62.4489 5.11111L61.7418 4.404ZM59.0818 2.64L58.7228 3.57335L58.7307 3.57637L58.7386 3.57926L59.0818 2.64ZM52.6698 2.696L53.0322 3.628L53.0397 3.62511L53.0471 3.62209L52.6698 2.696ZM50.0378 4.404L50.736 5.12006L50.7449 5.11111L50.0378 4.404ZM48.2738 6.98L47.3564 6.58189L47.3528 6.59036L48.2738 6.98ZM48.2738 13.448L47.3502 13.8314L47.3546 13.842L47.3593 13.8525L48.2738 13.448ZM50.0378 16.024L49.3306 16.7312L49.3397 16.74L50.0378 16.024ZM52.6698 17.732L52.2925 18.6581L52.2999 18.6611L52.3074 18.664L52.6698 17.732ZM59.0818 17.76L59.4408 18.6933L59.0818 17.76ZM61.7418 15.968L62.4489 15.2609L61.7336 14.5456L61.0266 15.2691L61.7418 15.968ZM63.0578 17.284L63.8004 17.9538L64.4365 17.2485L63.7649 16.5769L63.0578 17.284ZM59.8938 19.44L60.2556 20.3723L59.8938 19.44ZM55.8618 19.168C54.4986 19.168 53.2599 18.9441 52.1356 18.5077L51.412 20.3723C52.789 20.9066 54.2757 21.168 55.8618 21.168V19.168ZM52.1476 18.5125C51.0119 18.0548 50.0417 17.4251 49.2256 16.6256L47.826 18.0544C48.8393 19.0469 50.0343 19.8172 51.4 20.3675L52.1476 18.5125ZM49.2256 16.6256C48.4068 15.8236 47.7611 14.8781 47.2882 13.7804L45.4514 14.5716C46.0238 15.9005 46.8155 17.0644 47.826 18.0544L49.2256 16.6256ZM47.2933 13.7924C46.8444 12.7116 46.6138 11.5181 46.6138 10.2H44.6138C44.6138 11.7565 44.8872 13.2137 45.4463 14.5596L47.2933 13.7924ZM46.6138 10.2C46.6138 8.88188 46.8444 7.68837 47.2933 6.60761L45.4463 5.84039C44.8872 7.1863 44.6138 8.64345 44.6138 10.2H46.6138ZM47.2882 6.61962C47.7611 5.52186 48.4068 4.57643 49.2256 3.77436L47.826 2.34564C46.8155 3.33557 46.0238 4.49947 45.4514 5.82838L47.2882 6.61962ZM49.2183 3.78139C50.0529 2.98021 51.0314 2.35963 52.1636 1.92027L51.44 0.0557337C50.0709 0.587036 48.8654 1.34779 47.8333 2.33861L49.2183 3.78139ZM52.1756 1.91552C53.2968 1.4637 54.5312 1.232 55.8898 1.232V-0.768001C54.2991 -0.768001 52.8082 -0.495699 51.428 0.0604806L52.1756 1.91552ZM55.8898 1.232C57.1919 1.232 58.4032 1.45423 59.532 1.89227L60.2556 0.0277343C58.883 -0.504898 57.425 -0.768001 55.8898 -0.768001V1.232ZM59.5442 1.8969C60.6507 2.30979 61.5687 2.93008 62.3152 3.75777L63.8004 2.41823C62.8296 1.34192 61.6382 0.543545 60.2434 0.0230971L59.5442 1.8969ZM62.3507 2.38089L61.0347 3.69689L62.4489 5.11111L63.7649 3.79511L62.3507 2.38089ZM62.457 3.70507C61.5616 2.78884 60.551 2.11217 59.425 1.70073L58.7386 3.57926C59.5539 3.87716 60.3167 4.3765 61.0266 5.10293L62.457 3.70507ZM59.4408 1.70665C58.347 1.28597 57.179 1.08 55.9458 1.08V3.08C56.9526 3.08 57.8753 3.24736 58.7228 3.57335L59.4408 1.70665ZM55.9458 1.08C54.6509 1.08 53.4296 1.30662 52.2925 1.76991L53.0471 3.62209C53.9259 3.26404 54.8887 3.08 55.9458 3.08V1.08ZM52.3074 1.76399C51.1733 2.205 50.1778 2.84976 49.3307 3.69689L50.7449 5.11111C51.3911 4.4649 52.1503 3.971 53.0322 3.628L52.3074 1.76399ZM49.3397 3.688C48.4968 4.50983 47.8357 5.47752 47.3565 6.58191L49.1911 7.37809C49.5705 6.50381 50.0855 5.75417 50.7359 5.12L49.3397 3.688ZM47.3528 6.59036C46.8843 7.69783 46.6578 8.90565 46.6578 10.2H48.6578C48.6578 9.14235 48.842 8.2035 49.1948 7.36964L47.3528 6.59036ZM46.6578 10.2C46.6578 11.4946 46.8844 12.7091 47.3502 13.8314L49.1974 13.0646C48.8419 12.2082 48.6578 11.2574 48.6578 10.2H46.6578ZM47.3593 13.8525C47.8382 14.9354 48.4964 15.8968 49.3307 16.7311L50.7449 15.3169C50.0859 14.6579 49.568 13.902 49.1883 13.0435L47.3593 13.8525ZM49.3397 16.74C50.1828 17.562 51.1703 18.2009 52.2925 18.6581L53.0471 16.8059C52.1533 16.4418 51.3862 15.942 50.7359 15.308L49.3397 16.74ZM52.3074 18.664C53.4406 19.1047 54.6567 19.32 55.9458 19.32V17.32C54.8829 17.32 53.915 17.1433 53.0322 16.8L52.3074 18.664ZM55.9458 19.32C57.179 19.32 58.347 19.114 59.4408 18.6933L58.7228 16.8267C57.8753 17.1526 56.9526 17.32 55.9458 17.32V19.32ZM59.4408 18.6933C60.5591 18.2632 61.5644 17.5803 62.457 16.6669L61.0266 15.2691C60.3139 15.9984 59.5458 16.5101 58.7228 16.8267L59.4408 18.6933ZM61.0347 16.6751L62.3507 17.9911L63.7649 16.5769L62.4489 15.2609L61.0347 16.6751ZM62.3152 16.6142C61.5661 17.4448 60.644 18.0762 59.532 18.5077L60.2556 20.3723C61.645 19.8331 62.8321 19.0272 63.8004 17.9538L62.3152 16.6142ZM59.532 18.5077C58.4047 18.9452 57.1843 19.168 55.8618 19.168V21.168C57.414 21.168 58.8815 20.9055 60.2556 20.3723L59.532 18.5077ZM67.0668 20H66.0668V21H67.0668V20ZM67.0668 0.399999V-0.600001H66.0668V0.399999H67.0668ZM78.6868 1.212L78.274 2.12293L78.286 2.12816L78.6868 1.212ZM81.4308 3.508L80.5846 4.04081L80.5903 4.05L80.5963 4.05906L81.4308 3.508ZM81.4308 10.704L80.5916 10.1601L80.5891 10.164L81.4308 10.704ZM78.6868 13L79.0876 13.9162L79.0995 13.9109L78.6868 13ZM68.2148 13.784L67.4972 13.0875L65.8506 14.784H68.2148V13.784ZM69.1388 12.832H70.1388V10.3659L68.4212 12.1355L69.1388 12.832ZM69.1388 20V21H70.1388V20H69.1388ZM80.4508 20L79.6349 20.5782L79.9338 21H80.4508V20ZM75.4108 12.888V11.888H73.4765L74.5949 13.4662L75.4108 12.888ZM77.6508 12.888L78.4652 12.3077L78.1661 11.888H77.6508V12.888ZM82.7188 20V21H84.6593L83.5332 19.4197L82.7188 20ZM69.1388 13L68.4112 13.686L70.1388 15.5183V13H69.1388ZM68.2148 12.02V11.02H65.8975L67.4872 12.706L68.2148 12.02ZM78.7988 10.732L78.1572 9.96489L78.1503 9.97076L78.7988 10.732ZM78.7988 3.48L78.1503 4.24127L78.1572 4.24708L78.7988 3.48ZM68.2148 2.192L67.4872 1.50599L65.8975 3.192H68.2148V2.192ZM69.1388 1.212H70.1388V-1.3063L68.4112 0.525987L69.1388 1.212ZM68.0668 20V0.399999H66.0668V20H68.0668ZM67.0668 1.4H74.4028V-0.600001H67.0668V1.4ZM74.4028 1.4C75.9585 1.4 77.2388 1.65373 78.2741 2.12285L79.0995 0.301147C77.7455 -0.312401 76.1698 -0.600001 74.4028 -0.600001V1.4ZM78.286 2.12816C79.3153 2.57848 80.0667 3.21836 80.5846 4.04081L82.277 2.97519C81.5255 1.78164 80.4476 0.890849 79.0876 0.295843L78.286 2.12816ZM80.5963 4.05906C81.122 4.85507 81.4108 5.85818 81.4108 7.12H83.4108C83.4108 5.54448 83.0463 4.1396 82.2653 2.95694L80.5963 4.05906ZM81.4108 7.12C81.4108 8.33798 81.1249 9.3373 80.5916 10.1601L82.27 11.2479C83.0433 10.0547 83.4108 8.66468 83.4108 7.12H81.4108ZM80.5891 10.164C80.0705 10.9725 79.314 11.6179 78.2741 12.0891L79.0995 13.9109C80.4489 13.2994 81.5218 12.4141 82.2725 11.244L80.5891 10.164ZM78.286 12.0838C77.2473 12.5383 75.9626 12.784 74.4028 12.784V14.784C76.1657 14.784 77.737 14.507 79.0876 13.9162L78.286 12.0838ZM74.4028 12.784H68.2148V14.784H74.4028V12.784ZM68.9324 14.4805L69.8564 13.5285L68.4212 12.1355L67.4972 13.0875L68.9324 14.4805ZM68.1388 12.832V20H70.1388V12.832H68.1388ZM69.1388 19H67.0668V21H69.1388V19ZM81.2667 19.4218L76.2267 12.3098L74.5949 13.4662L79.6349 20.5782L81.2667 19.4218ZM75.4108 13.888H77.6508V11.888H75.4108V13.888ZM76.8364 13.4683L81.9044 20.5803L83.5332 19.4197L78.4652 12.3077L76.8364 13.4683ZM82.7188 19H80.4508V21H82.7188V19ZM69.8664 12.314L68.9424 11.334L67.4872 12.706L68.4112 13.686L69.8664 12.314ZM68.2148 13.02H74.3468V11.02H68.2148V13.02ZM74.3468 13.02C76.4337 13.02 78.1889 12.5652 79.4473 11.4932L78.1503 9.97076C77.3927 10.6161 76.1799 11.02 74.3468 11.02V13.02ZM79.4404 11.4991C80.7313 10.4194 81.3388 8.91345 81.3388 7.12H79.3388C79.3388 8.42521 78.9196 9.32729 78.1572 9.96492L79.4404 11.4991ZM81.3388 7.12C81.3388 5.31228 80.7342 3.79504 79.4404 2.71292L78.1572 4.24708C78.9167 4.88229 79.3388 5.79172 79.3388 7.12H81.3388ZM79.4473 2.71876C78.1889 1.6468 76.4337 1.192 74.3468 1.192V3.192C76.1799 3.192 77.3927 3.59587 78.1503 4.24124L79.4473 2.71876ZM74.3468 1.192H68.2148V3.192H74.3468V1.192ZM68.9424 2.87801L69.8664 1.89801L68.4112 0.525987L67.4872 1.50599L68.9424 2.87801ZM68.1388 1.212V13H70.1388V1.212H68.1388ZM86.8932 20H85.8932V21H86.8932V20ZM86.8932 0.399999V-0.600001H85.8932V0.399999H86.8932ZM88.9652 0.399999H89.9652V-0.600001H88.9652V0.399999ZM88.9652 20V21H89.9652V20H88.9652ZM87.8932 20V0.399999H85.8932V20H87.8932ZM86.8932 1.4H88.9652V-0.600001H86.8932V1.4ZM87.9652 0.399999V20H89.9652V0.399999H87.9652ZM88.9652 19H86.8932V21H88.9652V19ZM94.9344 20H93.9344V21H94.9344V20ZM94.9344 0.399999V-0.600001H93.9344V0.399999H94.9344ZM106.554 1.212L106.142 2.12293L106.154 2.12816L106.554 1.212ZM109.298 3.508L108.452 4.04081L108.458 4.05L108.464 4.05906L109.298 3.508ZM109.298 10.704L108.459 10.1601L108.457 10.164L109.298 10.704ZM106.554 13L106.967 13.9109L106.554 13ZM96.0824 13.812L95.3548 13.126L93.7651 14.812H96.0824V13.812ZM97.0064 12.832H98.0064V10.3137L96.2788 12.146L97.0064 12.832ZM97.0064 20V21H98.0064V20H97.0064ZM97.0064 13L96.2692 13.6757L98.0064 15.5708V13H97.0064ZM96.0824 11.992V10.992H93.8092L95.3452 12.6677L96.0824 11.992ZM106.666 10.732L107.307 11.5002L107.308 11.4991L106.666 10.732ZM106.666 3.48L106.018 4.24127L106.025 4.24708L106.666 3.48ZM96.0824 2.192L95.3548 1.50599L93.7651 3.192H96.0824V2.192ZM97.0064 1.212H98.0064V-1.3063L96.2788 0.525987L97.0064 1.212ZM95.9344 20V0.399999H93.9344V20H95.9344ZM94.9344 1.4H102.27V-0.600001H94.9344V1.4ZM102.27 1.4C103.826 1.4 105.106 1.65373 106.142 2.12285L106.967 0.301147C105.613 -0.312401 104.037 -0.600001 102.27 -0.600001V1.4ZM106.154 2.12816C107.183 2.57848 107.934 3.21836 108.452 4.04081L110.145 2.97519C109.393 1.78164 108.315 0.890849 106.955 0.295843L106.154 2.12816ZM108.464 4.05906C108.99 4.85507 109.278 5.85818 109.278 7.12H111.278C111.278 5.54448 110.914 4.1396 110.133 2.95694L108.464 4.05906ZM109.278 7.12C109.278 8.33798 108.993 9.3373 108.459 10.1601L110.138 11.2479C110.911 10.0547 111.278 8.66468 111.278 7.12H109.278ZM108.457 10.164C107.938 10.9725 107.182 11.6179 106.142 12.0891L106.967 13.9109C108.317 13.2994 109.389 12.4141 110.14 11.244L108.457 10.164ZM106.142 12.0891C105.106 12.5583 103.826 12.812 102.27 12.812V14.812C104.037 14.812 105.613 14.5244 106.967 13.9109L106.142 12.0891ZM102.27 12.812H96.0824V14.812H102.27V12.812ZM96.81 14.498L97.734 13.518L96.2788 12.146L95.3548 13.126L96.81 14.498ZM96.0064 12.832V20H98.0064V12.832H96.0064ZM97.0064 19H94.9344V21H97.0064V19ZM97.7435 12.3243L96.8195 11.3163L95.3452 12.6677L96.2692 13.6757L97.7435 12.3243ZM96.0824 12.992H102.214V10.992H96.0824V12.992ZM102.214 12.992C104.297 12.992 106.049 12.5485 107.307 11.5002L106.026 9.96378C105.268 10.5955 104.052 10.992 102.214 10.992V12.992ZM107.308 11.4991C108.599 10.4194 109.206 8.91345 109.206 7.12H107.206C107.206 8.42521 106.787 9.32729 106.025 9.96492L107.308 11.4991ZM109.206 7.12C109.206 5.31228 108.602 3.79504 107.308 2.71292L106.025 4.24708C106.784 4.88229 107.206 5.79172 107.206 7.12H109.206ZM107.315 2.71876C106.056 1.6468 104.301 1.192 102.214 1.192V3.192C104.048 3.192 105.26 3.59587 106.018 4.24124L107.315 2.71876ZM102.214 1.192H96.0824V3.192H102.214V1.192ZM96.81 2.87801L97.734 1.89801L96.2788 0.525987L95.3548 1.50599L96.81 2.87801ZM96.0064 1.212V13H98.0064V1.212H96.0064ZM117.502 20H116.502V21H117.502V20ZM117.502 2.192H118.502V1.192H117.502V2.192ZM110.614 2.192H109.614V3.192H110.614V2.192ZM110.614 0.399999V-0.600001H109.614V0.399999H110.614ZM126.462 0.399999H127.462V-0.600001H126.462V0.399999ZM126.462 2.192V3.192H127.462V2.192H126.462ZM119.574 2.192V1.192H118.574V2.192H119.574ZM119.574 20V21H120.574V20H119.574ZM118.502 20V2.192H116.502V20H118.502ZM117.502 1.192H110.614V3.192H117.502V1.192ZM111.614 2.192V0.399999H109.614V2.192H111.614ZM110.614 1.4H126.462V-0.600001H110.614V1.4ZM125.462 0.399999V2.192H127.462V0.399999H125.462ZM126.462 1.192H119.574V3.192H126.462V1.192ZM118.574 2.192V20H120.574V2.192H118.574ZM119.574 19H117.502V21H119.574V19ZM129.364 20H128.364V21H129.364V20ZM129.364 0.399999V-0.600001H128.364V0.399999H129.364ZM131.436 0.399999H132.436V-0.600001H131.436V0.399999ZM131.436 20V21H132.436V20H131.436ZM130.364 20V0.399999H128.364V20H130.364ZM129.364 1.4H131.436V-0.600001H129.364V1.4ZM130.436 0.399999V20H132.436V0.399999H130.436ZM131.436 19H129.364V21H131.436V19ZM141.858 19.44L141.484 20.3675L141.492 20.3709L141.501 20.3741L141.858 19.44ZM138.582 17.34L137.875 18.0471L137.882 18.0543L137.889 18.0614L138.582 17.34ZM136.426 14.176L135.502 14.5596L135.506 14.5682L135.51 14.5768L136.426 14.176ZM136.426 6.252L135.507 5.85636L135.504 5.8633L136.426 6.252ZM138.582 3.088L139.281 3.80236L139.282 3.80221L138.582 3.088ZM141.858 0.987999L142.22 1.92034L142.231 1.91552L141.858 0.987999ZM150.062 0.987999L149.688 1.9156L149.7 1.92027L150.062 0.987999ZM153.31 3.06L152.61 3.77439L152.617 3.78139L153.31 3.06ZM155.466 6.224L154.542 6.60764L154.547 6.61962L155.466 6.224ZM155.466 14.176L154.547 13.7803L154.542 13.7924L155.466 14.176ZM153.31 17.34L152.617 16.6186L152.61 16.6256L153.31 17.34ZM150.062 19.44L150.424 20.3723L150.435 20.3675L150.062 19.44ZM149.222 17.732L149.59 18.6617L149.599 18.6581L149.222 17.732ZM151.826 16.024L151.119 15.3169V15.3169L151.826 16.024ZM153.562 13.448L154.483 13.8376L154.485 13.8314L153.562 13.448ZM153.562 6.98L152.638 7.36339L152.641 7.36964L153.562 6.98ZM151.826 4.404L151.11 5.1021L151.119 5.11116L151.128 5.12L151.826 4.404ZM149.222 2.696L148.838 3.61959L148.849 3.62392L148.859 3.628L149.222 2.696ZM142.698 2.696L143.06 3.628L143.068 3.62511L143.075 3.62209L142.698 2.696ZM140.066 4.404L139.359 3.69689V3.69689L140.066 4.404ZM138.33 6.98L137.412 6.58189L137.409 6.59036L138.33 6.98ZM138.33 13.42L137.406 13.8034L137.409 13.8108L137.412 13.8181L138.33 13.42ZM140.066 16.024L139.35 16.7221L139.359 16.7312L139.368 16.74L140.066 16.024ZM142.698 17.732L142.32 18.6581L142.328 18.6611L142.335 18.664L142.698 17.732ZM145.974 19.168C144.611 19.168 143.361 18.9441 142.215 18.5059L141.501 20.3741C142.893 20.9066 144.387 21.168 145.974 21.168V19.168ZM142.231 18.5125C141.094 18.0542 140.112 17.4225 139.274 16.6186L137.889 18.0614C138.919 19.0495 140.12 19.8178 141.484 20.3675L142.231 18.5125ZM139.289 16.6329C138.463 15.8071 137.815 14.8566 137.342 13.7752L135.51 14.5768C136.082 15.8848 136.871 17.0435 137.875 18.0471L139.289 16.6329ZM137.349 13.7924C136.9 12.7116 136.67 11.5181 136.67 10.2H134.67C134.67 11.7565 134.943 13.2137 135.502 14.5596L137.349 13.7924ZM136.67 10.2C136.67 8.88166 136.9 7.69964 137.347 6.6407L135.504 5.8633C134.943 7.1937 134.67 8.64368 134.67 10.2H136.67ZM137.344 6.64762C137.817 5.54986 138.463 4.60443 139.281 3.80236L137.882 2.37364C136.871 3.36356 136.08 4.52747 135.507 5.85638L137.344 6.64762ZM139.282 3.80221C140.116 2.98494 141.092 2.35791 142.219 1.92027L141.496 0.0557337C140.122 0.588754 138.915 1.36173 137.882 2.37379L139.282 3.80221ZM142.231 1.91552C143.351 1.46429 144.595 1.232 145.974 1.232V-0.768001C144.366 -0.768001 142.866 -0.496287 141.484 0.0604806L142.231 1.91552ZM145.974 1.232C147.332 1.232 148.567 1.4637 149.688 1.91552L150.435 0.0604805C149.055 -0.495699 147.564 -0.768001 145.974 -0.768001V1.232ZM149.7 1.92027C150.83 2.35898 151.797 2.97764 152.61 3.77436L154.009 2.34564C152.993 1.35036 151.794 0.58768 150.423 0.0557338L149.7 1.92027ZM152.617 3.78139C153.449 4.58041 154.09 5.51955 154.542 6.60761L156.389 5.84039C155.833 4.50178 155.037 3.33159 154.002 2.33861L152.617 3.78139ZM154.547 6.61962C155.012 7.69737 155.25 8.88664 155.25 10.2H157.25C157.25 8.63869 156.965 7.17729 156.384 5.82838L154.547 6.61962ZM155.25 10.2C155.25 11.5134 155.012 12.7026 154.547 13.7804L156.384 14.5716C156.965 13.2227 157.25 11.7613 157.25 10.2H155.25ZM154.542 13.7924C154.09 14.8804 153.449 15.8196 152.617 16.6186L154.002 18.0614C155.037 17.0684 155.833 15.8982 156.389 14.5596L154.542 13.7924ZM152.61 16.6256C151.794 17.4251 150.824 18.0548 149.688 18.5125L150.435 20.3675C151.801 19.8172 152.996 19.0469 154.009 18.0544L152.61 16.6256ZM149.7 18.5077C148.576 18.9441 147.337 19.168 145.974 19.168V21.168C147.56 21.168 149.047 20.9066 150.423 20.3723L149.7 18.5077ZM145.974 19.32C147.263 19.32 148.472 19.1048 149.59 18.6617L148.853 16.8023C147.993 17.1432 147.037 17.32 145.974 17.32V19.32ZM149.599 18.6581C150.723 18.2001 151.705 17.5587 152.533 16.7311L151.119 15.3169C150.49 15.9453 149.736 16.4426 148.844 16.8059L149.599 18.6581ZM152.533 16.7311C153.37 15.8936 154.022 14.9271 154.483 13.8376L152.641 13.0584C152.28 13.9102 151.774 14.6611 151.119 15.3169L152.533 16.7311ZM154.485 13.8314C154.951 12.7091 155.178 11.4946 155.178 10.2H153.178C153.178 11.2574 152.994 12.2082 152.638 13.0646L154.485 13.8314ZM155.178 10.2C155.178 8.90565 154.951 7.69783 154.483 6.59036L152.641 7.36964C152.994 8.2035 153.178 9.14235 153.178 10.2H155.178ZM154.485 6.59662C154.024 5.48578 153.37 4.51307 152.524 3.688L151.128 5.12C151.775 5.75093 152.278 6.49555 152.638 7.36338L154.485 6.59662ZM152.542 3.7059C151.71 2.85307 150.72 2.20583 149.584 1.76399L148.859 3.628C149.739 3.97017 150.485 4.4616 151.11 5.1021L152.542 3.7059ZM149.605 1.77241C148.483 1.30657 147.268 1.08 145.974 1.08V3.08C147.031 3.08 147.982 3.2641 148.838 3.61959L149.605 1.77241ZM145.974 1.08C144.679 1.08 143.458 1.30662 142.32 1.76991L143.075 3.62209C143.954 3.26404 144.917 3.08 145.974 3.08V1.08ZM142.335 1.76399C141.201 2.205 140.206 2.84976 139.359 3.69689L140.773 5.11111C141.419 4.4649 142.178 3.971 143.06 3.628L142.335 1.76399ZM139.359 3.69689C138.538 4.51796 137.889 5.48283 137.412 6.58191L139.247 7.37809C139.629 6.4985 140.138 5.74604 140.773 5.11111L139.359 3.69689ZM137.409 6.59036C136.94 7.69783 136.714 8.90565 136.714 10.2H138.714C138.714 9.14235 138.898 8.2035 139.251 7.36964L137.409 6.59036ZM136.714 10.2C136.714 11.4782 136.941 12.683 137.406 13.8034L139.253 13.0366C138.897 12.1783 138.714 11.2364 138.714 10.2H136.714ZM137.412 13.8181C137.888 14.915 138.534 15.8855 139.35 16.7221L140.782 15.3259C140.141 14.6692 139.63 13.9037 139.247 13.0219L137.412 13.8181ZM139.368 16.74C140.211 17.562 141.198 18.2009 142.32 18.6581L143.075 16.8059C142.181 16.4418 141.414 15.942 140.764 15.308L139.368 16.74ZM142.335 18.664C143.469 19.1047 144.685 19.32 145.974 19.32V17.32C144.911 17.32 143.943 17.1433 143.06 16.8L142.335 18.664ZM160.486 20H159.486V21H160.486V20ZM160.486 0.399999V-0.600001H159.486V0.399999H160.486ZM162.194 0.399999L162.977 -0.222023L162.677 -0.600001H162.194V0.399999ZM175.718 17.424V18.424H177.79L176.501 16.802L175.718 17.424ZM174.822 17.424H173.822V18.424H174.822V17.424ZM174.822 0.399999V-0.600001H173.822V0.399999H174.822ZM176.866 0.399999H177.866V-0.600001H176.866V0.399999ZM176.866 20V21H177.866V20H176.866ZM175.158 20L174.374 20.6212L174.675 21H175.158V20ZM161.662 2.976V1.976H159.593L160.878 3.59723L161.662 2.976ZM162.558 2.976H163.558V1.976H162.558V2.976ZM162.558 20V21H163.558V20H162.558ZM161.486 20V0.399999H159.486V20H161.486ZM160.486 1.4H162.194V-0.600001H160.486V1.4ZM161.411 1.02202L174.935 18.046L176.501 16.802L162.977 -0.222023L161.411 1.02202ZM175.718 16.424H174.822V18.424H175.718V16.424ZM175.822 17.424V0.399999H173.822V17.424H175.822ZM174.822 1.4H176.866V-0.600001H174.822V1.4ZM175.866 0.399999V20H177.866V0.399999H175.866ZM176.866 19H175.158V21H176.866V19ZM175.942 19.3788L162.446 2.35477L160.878 3.59723L174.374 20.6212L175.942 19.3788ZM161.662 3.976H162.558V1.976H161.662V3.976ZM161.558 2.976V20H163.558V2.976H161.558ZM162.558 19H160.486V21H162.558V19Z" fill="url(#paint2_linear_525_4700)"/>
<path d="M0.120673 20H-0.879327V21H0.120673V20ZM0.120673 0.399999V-0.600001H-0.879327V0.399999H0.120673ZM2.19267 0.399999H3.19267V-0.600001H2.19267V0.399999ZM2.19267 20V21H3.19267V20H2.19267ZM1.12067 20V0.399999H-0.879327V20H1.12067ZM0.120673 1.4H2.19267V-0.600001H0.120673V1.4ZM1.19267 0.399999V20H3.19267V0.399999H1.19267ZM2.19267 19H0.120673V21H2.19267V19ZM8.16189 20H7.16189V21H8.16189V20ZM8.16189 0.399999V-0.600001H7.16189V0.399999H8.16189ZM9.86989 0.399999L10.6529 -0.222023L10.3526 -0.600001H9.86989V0.399999ZM23.3939 17.424V18.424H25.4654L24.1769 16.802L23.3939 17.424ZM22.4979 17.424H21.4979V18.424H22.4979V17.424ZM22.4979 0.399999V-0.600001H21.4979V0.399999H22.4979ZM24.5419 0.399999H25.5419V-0.600001H24.5419V0.399999ZM24.5419 20V21H25.5419V20H24.5419ZM22.8339 20L22.0503 20.6212L22.3505 21H22.8339V20ZM9.33789 2.976V1.976H7.26901L8.55426 3.59723L9.33789 2.976ZM10.2339 2.976H11.2339V1.976H10.2339V2.976ZM10.2339 20V21H11.2339V20H10.2339ZM9.16189 20V0.399999H7.16189V20H9.16189ZM8.16189 1.4H9.86989V-0.600001H8.16189V1.4ZM9.08689 1.02202L22.6109 18.046L24.1769 16.802L10.6529 -0.222023L9.08689 1.02202ZM23.3939 16.424H22.4979V18.424H23.3939V16.424ZM23.4979 17.424V0.399999H21.4979V17.424H23.4979ZM22.4979 1.4H24.5419V-0.600001H22.4979V1.4ZM23.5419 0.399999V20H25.5419V0.399999H23.5419ZM24.5419 19H22.8339V21H24.5419V19ZM23.6175 19.3788L10.1215 2.35477L8.55426 3.59723L22.0503 20.6212L23.6175 19.3788ZM9.33789 3.976H10.2339V1.976H9.33789V3.976ZM9.23389 2.976V20H11.2339V2.976H9.23389ZM10.2339 19H8.16189V21H10.2339V19ZM31.7352 19.468L31.3914 20.407L31.3993 20.4099L31.4072 20.4127L31.7352 19.468ZM28.6552 17.62L27.764 17.1665L27.4391 17.8051L27.9392 18.3181L28.6552 17.62ZM29.4672 16.024L30.1646 15.3073L29.1916 14.3605L28.576 15.5705L29.4672 16.024ZM32.2392 17.732L31.8653 18.6594L31.8742 18.6631L31.8832 18.6665L32.2392 17.732ZM38.9312 17.956L39.2948 18.8877L39.3064 18.8829L38.9312 17.956ZM40.6392 16.696L39.8255 16.1148L39.8185 16.1245L39.8118 16.1345L40.6392 16.696ZM40.5272 13.112L39.7913 13.7891L39.7985 13.7969L39.8058 13.8045L40.5272 13.112ZM38.8192 12.02L38.4521 12.9502L38.4627 12.9544L38.4735 12.9583L38.8192 12.02ZM33.8912 10.648L33.6193 11.6103L33.629 11.6131L33.6388 11.6156L33.8912 10.648ZM31.5112 9.696L31.0275 10.5713L31.0371 10.5765L31.5112 9.696ZM29.7752 8.156L28.9395 8.70518L28.9487 8.71909L28.9583 8.73268L29.7752 8.156ZM29.8872 2.948L29.0436 2.41111L29.0403 2.41623L29.8872 2.948ZM32.2672 0.987999L32.6822 1.89782L32.6888 1.89483L32.6953 1.89174L32.2672 0.987999ZM39.6312 0.708L39.35 1.66763L39.3576 1.66987L39.3653 1.67199L39.6312 0.708ZM42.4312 1.968L43.352 2.35815L43.6698 1.60801L42.9994 1.1451L42.4312 1.968ZM41.7312 3.62L41.1765 4.45205L42.181 5.12169L42.652 4.01015L41.7312 3.62ZM39.0432 2.388L38.7736 3.35098L38.7785 3.35233L39.0432 2.388ZM33.4152 2.472L33.0322 1.54826V1.54826L33.4152 2.472ZM31.7072 3.76L30.884 3.19225L30.8798 3.1985L31.7072 3.76ZM31.8192 7.4L31.0833 8.07706L31.0905 8.08487L31.0978 8.09253L31.8192 7.4ZM33.5552 8.492L33.2095 9.43038L33.2174 9.43319L33.5552 8.492ZM35.9352 9.192L35.7027 10.1646L35.9352 9.192ZM38.4832 9.864L38.2057 10.8247L38.2113 10.8263L38.4832 9.864ZM40.8352 10.816L40.3515 11.6912L40.3651 11.6987L40.3789 11.7058L40.8352 10.816ZM42.5712 12.328L41.743 12.8883L41.7485 12.8966L41.7543 12.9047L42.5712 12.328ZM42.4592 17.48L43.2973 18.0257L43.3029 18.0169L42.4592 17.48ZM40.0512 19.44L40.4663 20.3498L40.4733 20.3466L40.0512 19.44ZM35.9352 19.168C34.5882 19.168 33.2993 18.9525 32.0632 18.5233L31.4072 20.4127C32.8592 20.9168 34.3702 21.168 35.9352 21.168V19.168ZM32.0791 18.529C30.8472 18.0779 29.9647 17.5305 29.3712 16.9219L27.9392 18.3181C28.8018 19.2028 29.9726 19.8875 31.3914 20.407L32.0791 18.529ZM29.5465 18.0735L30.3585 16.4775L28.576 15.5705L27.764 17.1665L29.5465 18.0735ZM28.7699 16.7407C29.5767 17.5257 30.6214 18.1579 31.8653 18.6594L32.6132 16.8046C31.5424 16.3728 30.7391 15.8663 30.1646 15.3073L28.7699 16.7407ZM31.8832 18.6665C33.1756 19.1588 34.5285 19.404 35.9352 19.404V17.404C34.766 17.404 33.6548 17.2012 32.5952 16.7975L31.8832 18.6665ZM35.9352 19.404C37.2355 19.404 38.3708 19.2482 39.2948 18.8876L38.5677 17.0244C37.961 17.2612 37.0989 17.404 35.9352 17.404V19.404ZM39.3064 18.8829C40.2131 18.516 40.9689 17.9912 41.4667 17.2575L39.8118 16.1345C39.6003 16.4462 39.2174 16.7614 38.556 17.0291L39.3064 18.8829ZM41.453 17.2772C41.9459 16.5872 42.1992 15.8058 42.1992 14.96H40.1992C40.1992 15.3836 40.0793 15.7595 39.8255 16.1148L41.453 17.2772ZM42.1992 14.96C42.1992 13.987 41.9076 13.1059 41.2486 12.4195L39.8058 13.8045C40.0429 14.0515 40.1992 14.4023 40.1992 14.96H42.1992ZM41.2632 12.4349C40.7075 11.831 39.9948 11.3874 39.1649 11.0817L38.4735 12.9583C39.0623 13.1753 39.4883 13.4597 39.7913 13.7891L41.2632 12.4349ZM39.1864 11.0898C38.4271 10.7901 37.5973 10.534 36.6998 10.3194L36.2347 12.2646C37.0545 12.4606 37.7927 12.6899 38.4521 12.9502L39.1864 11.0898ZM36.6998 10.3194C35.8478 10.1157 34.9958 9.90267 34.1437 9.68038L33.6388 11.6156C34.504 11.8413 35.3693 12.0577 36.2347 12.2646L36.6998 10.3194ZM34.1632 9.68569C33.3692 9.4613 32.6443 9.17036 31.9853 8.81553L31.0371 10.5765C31.8342 11.0056 32.6959 11.3494 33.6193 11.6103L34.1632 9.68569ZM31.9949 8.82076C31.4119 8.49858 30.9493 8.0852 30.5922 7.57932L28.9583 8.73268C29.4972 9.49614 30.1919 10.1094 31.0275 10.5712L31.9949 8.82076ZM30.6109 7.60682C30.3194 7.16312 30.1312 6.52249 30.1312 5.608H28.1312C28.1312 6.78417 28.3724 7.84221 28.9395 8.70518L30.6109 7.60682ZM30.1312 5.608C30.1312 4.82067 30.3327 4.1191 30.7341 3.47977L29.0403 2.41623C28.4338 3.38223 28.1312 4.454 28.1312 5.608H30.1312ZM30.7309 3.48487C31.1304 2.85701 31.7584 2.31924 32.6822 1.89782L31.8522 0.0781801C30.6481 0.627423 29.6894 1.39632 29.0436 2.41112L30.7309 3.48487ZM32.6953 1.89174C33.5822 1.47162 34.7851 1.232 36.3552 1.232V-0.768001C34.6027 -0.768001 33.0802 -0.503626 31.8391 0.0842617L32.6953 1.89174ZM36.3552 1.232C37.3591 1.232 38.3564 1.37641 39.35 1.66763L39.9125 -0.251629C38.7407 -0.59508 37.5541 -0.768001 36.3552 -0.768001V1.232ZM39.3653 1.67199C40.3589 1.94608 41.186 2.32341 41.863 2.7909L42.9994 1.1451C42.1085 0.529917 41.0689 0.0672535 39.8972 -0.255993L39.3653 1.67199ZM41.5105 1.57785L40.8105 3.22985L42.652 4.01015L43.352 2.35815L41.5105 1.57785ZM42.2859 2.78795C41.359 2.17 40.3654 1.71395 39.3079 1.42367L38.7785 3.35233C39.6251 3.58471 40.4235 3.95 41.1765 4.45205L42.2859 2.78795ZM39.3129 1.42504C38.3008 1.14167 37.3047 0.996 36.3272 0.996V2.996C37.1045 2.996 37.919 3.11166 38.7736 3.35096L39.3129 1.42504ZM36.3272 0.996C35.0707 0.996 33.9585 1.16417 33.0322 1.54826L33.7982 3.39574C34.4026 3.14516 35.2317 2.996 36.3272 2.996V0.996ZM33.0322 1.54826C32.135 1.92028 31.392 2.45574 30.884 3.19227L32.5304 4.32773C32.7692 3.98159 33.1648 3.65839 33.7982 3.39574L33.0322 1.54826ZM30.8798 3.1985C30.4053 3.89765 30.1752 4.69325 30.1752 5.552H32.1752C32.1752 5.06674 32.2998 4.66768 32.5347 4.3215L30.8798 3.1985ZM30.1752 5.552C30.1752 6.51339 30.4504 7.38912 31.0833 8.07706L32.5552 6.72294C32.3294 6.47755 32.1752 6.12127 32.1752 5.552H30.1752ZM31.0978 8.09253C31.6671 8.68553 32.3818 9.1254 33.2095 9.43034L33.9009 7.55366C33.31 7.33593 32.8673 7.0478 32.5406 6.70747L31.0978 8.09253ZM33.2174 9.43319C33.9843 9.7085 34.8132 9.95189 35.7027 10.1646L36.1678 8.21942C35.3399 8.02145 34.5822 7.79817 33.8931 7.55081L33.2174 9.43319ZM35.7027 10.1646C36.5464 10.3663 37.3807 10.5864 38.2057 10.8247L38.7608 8.90329C37.9057 8.65627 37.0414 8.42832 36.1678 8.21942L35.7027 10.1646ZM38.2113 10.8263C39.0036 11.0502 39.7156 11.3398 40.3515 11.6912L41.3189 9.94076C40.5362 9.50822 39.6802 9.16311 38.7552 8.90169L38.2113 10.8263ZM40.3789 11.7058C40.9676 12.0077 41.4143 12.4024 41.743 12.8883L43.3995 11.7677C42.8695 10.9842 42.1588 10.3709 41.2915 9.92618L40.3789 11.7058ZM41.7543 12.9047C42.0502 13.3239 42.2432 13.9342 42.2432 14.82H44.2432C44.2432 13.6525 43.9883 12.6014 43.3882 11.7513L41.7543 12.9047ZM42.2432 14.82C42.2432 15.5773 42.0386 16.2784 41.6156 16.9431L43.3029 18.0169C43.9252 17.0389 44.2432 15.9667 44.2432 14.82H42.2432ZM41.6212 16.9343C41.2232 17.5456 40.5839 18.089 39.6292 18.5334L40.4733 20.3466C41.6839 19.783 42.6499 19.0197 43.2972 18.0257L41.6212 16.9343ZM39.6362 18.5302C38.7465 18.936 37.5299 19.168 35.9352 19.168V21.168C37.7006 21.168 39.228 20.9146 40.4662 20.3498L39.6362 18.5302ZM51.7738 19.44L51.4 20.3676L51.412 20.3723L51.7738 19.44ZM48.5258 17.34L47.826 18.0544L48.5258 17.34ZM46.3698 14.176L45.4462 14.5596L45.4514 14.5716L46.3698 14.176ZM46.3698 6.224L45.4513 5.82834L45.4463 5.84039L46.3698 6.224ZM48.5258 3.06L47.8332 2.33858L47.826 2.34564L48.5258 3.06ZM51.8018 0.987999L52.1636 1.92034L52.1756 1.91552L51.8018 0.987999ZM59.8938 0.96L59.532 1.89234L59.5442 1.8969L59.8938 0.96ZM63.0578 3.088L63.7649 3.79511L64.4365 3.12351L63.8004 2.41823L63.0578 3.088ZM61.7418 4.404L61.0266 5.10293L61.7336 5.82639L62.4489 5.11111L61.7418 4.404ZM59.0818 2.64L58.7228 3.57335L58.7307 3.57637L58.7386 3.57926L59.0818 2.64ZM52.6698 2.696L53.0322 3.628L53.0397 3.62511L53.0471 3.62209L52.6698 2.696ZM50.0378 4.404L50.736 5.12006L50.7449 5.11111L50.0378 4.404ZM48.2738 6.98L47.3564 6.58189L47.3528 6.59036L48.2738 6.98ZM48.2738 13.448L47.3502 13.8314L47.3546 13.842L47.3593 13.8525L48.2738 13.448ZM50.0378 16.024L49.3306 16.7312L49.3397 16.74L50.0378 16.024ZM52.6698 17.732L52.2925 18.6581L52.2999 18.6611L52.3074 18.664L52.6698 17.732ZM59.0818 17.76L59.4408 18.6933L59.0818 17.76ZM61.7418 15.968L62.4489 15.2609L61.7336 14.5456L61.0266 15.2691L61.7418 15.968ZM63.0578 17.284L63.8004 17.9538L64.4365 17.2485L63.7649 16.5769L63.0578 17.284ZM59.8938 19.44L60.2556 20.3723L59.8938 19.44ZM55.8618 19.168C54.4986 19.168 53.2599 18.9441 52.1356 18.5077L51.412 20.3723C52.789 20.9066 54.2757 21.168 55.8618 21.168V19.168ZM52.1476 18.5125C51.0119 18.0548 50.0417 17.4251 49.2256 16.6256L47.826 18.0544C48.8393 19.0469 50.0343 19.8172 51.4 20.3675L52.1476 18.5125ZM49.2256 16.6256C48.4068 15.8236 47.7611 14.8781 47.2882 13.7804L45.4514 14.5716C46.0238 15.9005 46.8155 17.0644 47.826 18.0544L49.2256 16.6256ZM47.2933 13.7924C46.8444 12.7116 46.6138 11.5181 46.6138 10.2H44.6138C44.6138 11.7565 44.8872 13.2137 45.4463 14.5596L47.2933 13.7924ZM46.6138 10.2C46.6138 8.88188 46.8444 7.68837 47.2933 6.60761L45.4463 5.84039C44.8872 7.1863 44.6138 8.64345 44.6138 10.2H46.6138ZM47.2882 6.61962C47.7611 5.52186 48.4068 4.57643 49.2256 3.77436L47.826 2.34564C46.8155 3.33557 46.0238 4.49947 45.4514 5.82838L47.2882 6.61962ZM49.2183 3.78139C50.0529 2.98021 51.0314 2.35963 52.1636 1.92027L51.44 0.0557337C50.0709 0.587036 48.8654 1.34779 47.8333 2.33861L49.2183 3.78139ZM52.1756 1.91552C53.2968 1.4637 54.5312 1.232 55.8898 1.232V-0.768001C54.2991 -0.768001 52.8082 -0.495699 51.428 0.0604806L52.1756 1.91552ZM55.8898 1.232C57.1919 1.232 58.4032 1.45423 59.532 1.89227L60.2556 0.0277343C58.883 -0.504898 57.425 -0.768001 55.8898 -0.768001V1.232ZM59.5442 1.8969C60.6507 2.30979 61.5687 2.93008 62.3152 3.75777L63.8004 2.41823C62.8296 1.34192 61.6382 0.543545 60.2434 0.0230971L59.5442 1.8969ZM62.3507 2.38089L61.0347 3.69689L62.4489 5.11111L63.7649 3.79511L62.3507 2.38089ZM62.457 3.70507C61.5616 2.78884 60.551 2.11217 59.425 1.70073L58.7386 3.57926C59.5539 3.87716 60.3167 4.3765 61.0266 5.10293L62.457 3.70507ZM59.4408 1.70665C58.347 1.28597 57.179 1.08 55.9458 1.08V3.08C56.9526 3.08 57.8753 3.24736 58.7228 3.57335L59.4408 1.70665ZM55.9458 1.08C54.6509 1.08 53.4296 1.30662 52.2925 1.76991L53.0471 3.62209C53.9259 3.26404 54.8887 3.08 55.9458 3.08V1.08ZM52.3074 1.76399C51.1733 2.205 50.1778 2.84976 49.3307 3.69689L50.7449 5.11111C51.3911 4.4649 52.1503 3.971 53.0322 3.628L52.3074 1.76399ZM49.3397 3.688C48.4968 4.50983 47.8357 5.47752 47.3565 6.58191L49.1911 7.37809C49.5705 6.50381 50.0855 5.75417 50.7359 5.12L49.3397 3.688ZM47.3528 6.59036C46.8843 7.69783 46.6578 8.90565 46.6578 10.2H48.6578C48.6578 9.14235 48.842 8.2035 49.1948 7.36964L47.3528 6.59036ZM46.6578 10.2C46.6578 11.4946 46.8844 12.7091 47.3502 13.8314L49.1974 13.0646C48.8419 12.2082 48.6578 11.2574 48.6578 10.2H46.6578ZM47.3593 13.8525C47.8382 14.9354 48.4964 15.8968 49.3307 16.7311L50.7449 15.3169C50.0859 14.6579 49.568 13.902 49.1883 13.0435L47.3593 13.8525ZM49.3397 16.74C50.1828 17.562 51.1703 18.2009 52.2925 18.6581L53.0471 16.8059C52.1533 16.4418 51.3862 15.942 50.7359 15.308L49.3397 16.74ZM52.3074 18.664C53.4406 19.1047 54.6567 19.32 55.9458 19.32V17.32C54.8829 17.32 53.915 17.1433 53.0322 16.8L52.3074 18.664ZM55.9458 19.32C57.179 19.32 58.347 19.114 59.4408 18.6933L58.7228 16.8267C57.8753 17.1526 56.9526 17.32 55.9458 17.32V19.32ZM59.4408 18.6933C60.5591 18.2632 61.5644 17.5803 62.457 16.6669L61.0266 15.2691C60.3139 15.9984 59.5458 16.5101 58.7228 16.8267L59.4408 18.6933ZM61.0347 16.6751L62.3507 17.9911L63.7649 16.5769L62.4489 15.2609L61.0347 16.6751ZM62.3152 16.6142C61.5661 17.4448 60.644 18.0762 59.532 18.5077L60.2556 20.3723C61.645 19.8331 62.8321 19.0272 63.8004 17.9538L62.3152 16.6142ZM59.532 18.5077C58.4047 18.9452 57.1843 19.168 55.8618 19.168V21.168C57.414 21.168 58.8815 20.9055 60.2556 20.3723L59.532 18.5077ZM67.0668 20H66.0668V21H67.0668V20ZM67.0668 0.399999V-0.600001H66.0668V0.399999H67.0668ZM78.6868 1.212L78.274 2.12293L78.286 2.12816L78.6868 1.212ZM81.4308 3.508L80.5846 4.04081L80.5903 4.05L80.5963 4.05906L81.4308 3.508ZM81.4308 10.704L80.5916 10.1601L80.5891 10.164L81.4308 10.704ZM78.6868 13L79.0876 13.9162L79.0995 13.9109L78.6868 13ZM68.2148 13.784L67.4972 13.0875L65.8506 14.784H68.2148V13.784ZM69.1388 12.832H70.1388V10.3659L68.4212 12.1355L69.1388 12.832ZM69.1388 20V21H70.1388V20H69.1388ZM80.4508 20L79.6349 20.5782L79.9338 21H80.4508V20ZM75.4108 12.888V11.888H73.4765L74.5949 13.4662L75.4108 12.888ZM77.6508 12.888L78.4652 12.3077L78.1661 11.888H77.6508V12.888ZM82.7188 20V21H84.6593L83.5332 19.4197L82.7188 20ZM69.1388 13L68.4112 13.686L70.1388 15.5183V13H69.1388ZM68.2148 12.02V11.02H65.8975L67.4872 12.706L68.2148 12.02ZM78.7988 10.732L78.1572 9.96489L78.1503 9.97076L78.7988 10.732ZM78.7988 3.48L78.1503 4.24127L78.1572 4.24708L78.7988 3.48ZM68.2148 2.192L67.4872 1.50599L65.8975 3.192H68.2148V2.192ZM69.1388 1.212H70.1388V-1.3063L68.4112 0.525987L69.1388 1.212ZM68.0668 20V0.399999H66.0668V20H68.0668ZM67.0668 1.4H74.4028V-0.600001H67.0668V1.4ZM74.4028 1.4C75.9585 1.4 77.2388 1.65373 78.2741 2.12285L79.0995 0.301147C77.7455 -0.312401 76.1698 -0.600001 74.4028 -0.600001V1.4ZM78.286 2.12816C79.3153 2.57848 80.0667 3.21836 80.5846 4.04081L82.277 2.97519C81.5255 1.78164 80.4476 0.890849 79.0876 0.295843L78.286 2.12816ZM80.5963 4.05906C81.122 4.85507 81.4108 5.85818 81.4108 7.12H83.4108C83.4108 5.54448 83.0463 4.1396 82.2653 2.95694L80.5963 4.05906ZM81.4108 7.12C81.4108 8.33798 81.1249 9.3373 80.5916 10.1601L82.27 11.2479C83.0433 10.0547 83.4108 8.66468 83.4108 7.12H81.4108ZM80.5891 10.164C80.0705 10.9725 79.314 11.6179 78.2741 12.0891L79.0995 13.9109C80.4489 13.2994 81.5218 12.4141 82.2725 11.244L80.5891 10.164ZM78.286 12.0838C77.2473 12.5383 75.9626 12.784 74.4028 12.784V14.784C76.1657 14.784 77.737 14.507 79.0876 13.9162L78.286 12.0838ZM74.4028 12.784H68.2148V14.784H74.4028V12.784ZM68.9324 14.4805L69.8564 13.5285L68.4212 12.1355L67.4972 13.0875L68.9324 14.4805ZM68.1388 12.832V20H70.1388V12.832H68.1388ZM69.1388 19H67.0668V21H69.1388V19ZM81.2667 19.4218L76.2267 12.3098L74.5949 13.4662L79.6349 20.5782L81.2667 19.4218ZM75.4108 13.888H77.6508V11.888H75.4108V13.888ZM76.8364 13.4683L81.9044 20.5803L83.5332 19.4197L78.4652 12.3077L76.8364 13.4683ZM82.7188 19H80.4508V21H82.7188V19ZM69.8664 12.314L68.9424 11.334L67.4872 12.706L68.4112 13.686L69.8664 12.314ZM68.2148 13.02H74.3468V11.02H68.2148V13.02ZM74.3468 13.02C76.4337 13.02 78.1889 12.5652 79.4473 11.4932L78.1503 9.97076C77.3927 10.6161 76.1799 11.02 74.3468 11.02V13.02ZM79.4404 11.4991C80.7313 10.4194 81.3388 8.91345 81.3388 7.12H79.3388C79.3388 8.42521 78.9196 9.32729 78.1572 9.96492L79.4404 11.4991ZM81.3388 7.12C81.3388 5.31228 80.7342 3.79504 79.4404 2.71292L78.1572 4.24708C78.9167 4.88229 79.3388 5.79172 79.3388 7.12H81.3388ZM79.4473 2.71876C78.1889 1.6468 76.4337 1.192 74.3468 1.192V3.192C76.1799 3.192 77.3927 3.59587 78.1503 4.24124L79.4473 2.71876ZM74.3468 1.192H68.2148V3.192H74.3468V1.192ZM68.9424 2.87801L69.8664 1.89801L68.4112 0.525987L67.4872 1.50599L68.9424 2.87801ZM68.1388 1.212V13H70.1388V1.212H68.1388ZM86.8932 20H85.8932V21H86.8932V20ZM86.8932 0.399999V-0.600001H85.8932V0.399999H86.8932ZM88.9652 0.399999H89.9652V-0.600001H88.9652V0.399999ZM88.9652 20V21H89.9652V20H88.9652ZM87.8932 20V0.399999H85.8932V20H87.8932ZM86.8932 1.4H88.9652V-0.600001H86.8932V1.4ZM87.9652 0.399999V20H89.9652V0.399999H87.9652ZM88.9652 19H86.8932V21H88.9652V19ZM94.9344 20H93.9344V21H94.9344V20ZM94.9344 0.399999V-0.600001H93.9344V0.399999H94.9344ZM106.554 1.212L106.142 2.12293L106.154 2.12816L106.554 1.212ZM109.298 3.508L108.452 4.04081L108.458 4.05L108.464 4.05906L109.298 3.508ZM109.298 10.704L108.459 10.1601L108.457 10.164L109.298 10.704ZM106.554 13L106.967 13.9109L106.554 13ZM96.0824 13.812L95.3548 13.126L93.7651 14.812H96.0824V13.812ZM97.0064 12.832H98.0064V10.3137L96.2788 12.146L97.0064 12.832ZM97.0064 20V21H98.0064V20H97.0064ZM97.0064 13L96.2692 13.6757L98.0064 15.5708V13H97.0064ZM96.0824 11.992V10.992H93.8092L95.3452 12.6677L96.0824 11.992ZM106.666 10.732L107.307 11.5002L107.308 11.4991L106.666 10.732ZM106.666 3.48L106.018 4.24127L106.025 4.24708L106.666 3.48ZM96.0824 2.192L95.3548 1.50599L93.7651 3.192H96.0824V2.192ZM97.0064 1.212H98.0064V-1.3063L96.2788 0.525987L97.0064 1.212ZM95.9344 20V0.399999H93.9344V20H95.9344ZM94.9344 1.4H102.27V-0.600001H94.9344V1.4ZM102.27 1.4C103.826 1.4 105.106 1.65373 106.142 2.12285L106.967 0.301147C105.613 -0.312401 104.037 -0.600001 102.27 -0.600001V1.4ZM106.154 2.12816C107.183 2.57848 107.934 3.21836 108.452 4.04081L110.145 2.97519C109.393 1.78164 108.315 0.890849 106.955 0.295843L106.154 2.12816ZM108.464 4.05906C108.99 4.85507 109.278 5.85818 109.278 7.12H111.278C111.278 5.54448 110.914 4.1396 110.133 2.95694L108.464 4.05906ZM109.278 7.12C109.278 8.33798 108.993 9.3373 108.459 10.1601L110.138 11.2479C110.911 10.0547 111.278 8.66468 111.278 7.12H109.278ZM108.457 10.164C107.938 10.9725 107.182 11.6179 106.142 12.0891L106.967 13.9109C108.317 13.2994 109.389 12.4141 110.14 11.244L108.457 10.164ZM106.142 12.0891C105.106 12.5583 103.826 12.812 102.27 12.812V14.812C104.037 14.812 105.613 14.5244 106.967 13.9109L106.142 12.0891ZM102.27 12.812H96.0824V14.812H102.27V12.812ZM96.81 14.498L97.734 13.518L96.2788 12.146L95.3548 13.126L96.81 14.498ZM96.0064 12.832V20H98.0064V12.832H96.0064ZM97.0064 19H94.9344V21H97.0064V19ZM97.7435 12.3243L96.8195 11.3163L95.3452 12.6677L96.2692 13.6757L97.7435 12.3243ZM96.0824 12.992H102.214V10.992H96.0824V12.992ZM102.214 12.992C104.297 12.992 106.049 12.5485 107.307 11.5002L106.026 9.96378C105.268 10.5955 104.052 10.992 102.214 10.992V12.992ZM107.308 11.4991C108.599 10.4194 109.206 8.91345 109.206 7.12H107.206C107.206 8.42521 106.787 9.32729 106.025 9.96492L107.308 11.4991ZM109.206 7.12C109.206 5.31228 108.602 3.79504 107.308 2.71292L106.025 4.24708C106.784 4.88229 107.206 5.79172 107.206 7.12H109.206ZM107.315 2.71876C106.056 1.6468 104.301 1.192 102.214 1.192V3.192C104.048 3.192 105.26 3.59587 106.018 4.24124L107.315 2.71876ZM102.214 1.192H96.0824V3.192H102.214V1.192ZM96.81 2.87801L97.734 1.89801L96.2788 0.525987L95.3548 1.50599L96.81 2.87801ZM96.0064 1.212V13H98.0064V1.212H96.0064ZM117.502 20H116.502V21H117.502V20ZM117.502 2.192H118.502V1.192H117.502V2.192ZM110.614 2.192H109.614V3.192H110.614V2.192ZM110.614 0.399999V-0.600001H109.614V0.399999H110.614ZM126.462 0.399999H127.462V-0.600001H126.462V0.399999ZM126.462 2.192V3.192H127.462V2.192H126.462ZM119.574 2.192V1.192H118.574V2.192H119.574ZM119.574 20V21H120.574V20H119.574ZM118.502 20V2.192H116.502V20H118.502ZM117.502 1.192H110.614V3.192H117.502V1.192ZM111.614 2.192V0.399999H109.614V2.192H111.614ZM110.614 1.4H126.462V-0.600001H110.614V1.4ZM125.462 0.399999V2.192H127.462V0.399999H125.462ZM126.462 1.192H119.574V3.192H126.462V1.192ZM118.574 2.192V20H120.574V2.192H118.574ZM119.574 19H117.502V21H119.574V19ZM129.364 20H128.364V21H129.364V20ZM129.364 0.399999V-0.600001H128.364V0.399999H129.364ZM131.436 0.399999H132.436V-0.600001H131.436V0.399999ZM131.436 20V21H132.436V20H131.436ZM130.364 20V0.399999H128.364V20H130.364ZM129.364 1.4H131.436V-0.600001H129.364V1.4ZM130.436 0.399999V20H132.436V0.399999H130.436ZM131.436 19H129.364V21H131.436V19ZM141.858 19.44L141.484 20.3675L141.492 20.3709L141.501 20.3741L141.858 19.44ZM138.582 17.34L137.875 18.0471L137.882 18.0543L137.889 18.0614L138.582 17.34ZM136.426 14.176L135.502 14.5596L135.506 14.5682L135.51 14.5768L136.426 14.176ZM136.426 6.252L135.507 5.85636L135.504 5.8633L136.426 6.252ZM138.582 3.088L139.281 3.80236L139.282 3.80221L138.582 3.088ZM141.858 0.987999L142.22 1.92034L142.231 1.91552L141.858 0.987999ZM150.062 0.987999L149.688 1.9156L149.7 1.92027L150.062 0.987999ZM153.31 3.06L152.61 3.77439L152.617 3.78139L153.31 3.06ZM155.466 6.224L154.542 6.60764L154.547 6.61962L155.466 6.224ZM155.466 14.176L154.547 13.7803L154.542 13.7924L155.466 14.176ZM153.31 17.34L152.617 16.6186L152.61 16.6256L153.31 17.34ZM150.062 19.44L150.424 20.3723L150.435 20.3675L150.062 19.44ZM149.222 17.732L149.59 18.6617L149.599 18.6581L149.222 17.732ZM151.826 16.024L151.119 15.3169V15.3169L151.826 16.024ZM153.562 13.448L154.483 13.8376L154.485 13.8314L153.562 13.448ZM153.562 6.98L152.638 7.36339L152.641 7.36964L153.562 6.98ZM151.826 4.404L151.11 5.1021L151.119 5.11116L151.128 5.12L151.826 4.404ZM149.222 2.696L148.838 3.61959L148.849 3.62392L148.859 3.628L149.222 2.696ZM142.698 2.696L143.06 3.628L143.068 3.62511L143.075 3.62209L142.698 2.696ZM140.066 4.404L139.359 3.69689V3.69689L140.066 4.404ZM138.33 6.98L137.412 6.58189L137.409 6.59036L138.33 6.98ZM138.33 13.42L137.406 13.8034L137.409 13.8108L137.412 13.8181L138.33 13.42ZM140.066 16.024L139.35 16.7221L139.359 16.7312L139.368 16.74L140.066 16.024ZM142.698 17.732L142.32 18.6581L142.328 18.6611L142.335 18.664L142.698 17.732ZM145.974 19.168C144.611 19.168 143.361 18.9441 142.215 18.5059L141.501 20.3741C142.893 20.9066 144.387 21.168 145.974 21.168V19.168ZM142.231 18.5125C141.094 18.0542 140.112 17.4225 139.274 16.6186L137.889 18.0614C138.919 19.0495 140.12 19.8178 141.484 20.3675L142.231 18.5125ZM139.289 16.6329C138.463 15.8071 137.815 14.8566 137.342 13.7752L135.51 14.5768C136.082 15.8848 136.871 17.0435 137.875 18.0471L139.289 16.6329ZM137.349 13.7924C136.9 12.7116 136.67 11.5181 136.67 10.2H134.67C134.67 11.7565 134.943 13.2137 135.502 14.5596L137.349 13.7924ZM136.67 10.2C136.67 8.88166 136.9 7.69964 137.347 6.6407L135.504 5.8633C134.943 7.1937 134.67 8.64368 134.67 10.2H136.67ZM137.344 6.64762C137.817 5.54986 138.463 4.60443 139.281 3.80236L137.882 2.37364C136.871 3.36356 136.08 4.52747 135.507 5.85638L137.344 6.64762ZM139.282 3.80221C140.116 2.98494 141.092 2.35791 142.219 1.92027L141.496 0.0557337C140.122 0.588754 138.915 1.36173 137.882 2.37379L139.282 3.80221ZM142.231 1.91552C143.351 1.46429 144.595 1.232 145.974 1.232V-0.768001C144.366 -0.768001 142.866 -0.496287 141.484 0.0604806L142.231 1.91552ZM145.974 1.232C147.332 1.232 148.567 1.4637 149.688 1.91552L150.435 0.0604805C149.055 -0.495699 147.564 -0.768001 145.974 -0.768001V1.232ZM149.7 1.92027C150.83 2.35898 151.797 2.97764 152.61 3.77436L154.009 2.34564C152.993 1.35036 151.794 0.58768 150.423 0.0557338L149.7 1.92027ZM152.617 3.78139C153.449 4.58041 154.09 5.51955 154.542 6.60761L156.389 5.84039C155.833 4.50178 155.037 3.33159 154.002 2.33861L152.617 3.78139ZM154.547 6.61962C155.012 7.69737 155.25 8.88664 155.25 10.2H157.25C157.25 8.63869 156.965 7.17729 156.384 5.82838L154.547 6.61962ZM155.25 10.2C155.25 11.5134 155.012 12.7026 154.547 13.7804L156.384 14.5716C156.965 13.2227 157.25 11.7613 157.25 10.2H155.25ZM154.542 13.7924C154.09 14.8804 153.449 15.8196 152.617 16.6186L154.002 18.0614C155.037 17.0684 155.833 15.8982 156.389 14.5596L154.542 13.7924ZM152.61 16.6256C151.794 17.4251 150.824 18.0548 149.688 18.5125L150.435 20.3675C151.801 19.8172 152.996 19.0469 154.009 18.0544L152.61 16.6256ZM149.7 18.5077C148.576 18.9441 147.337 19.168 145.974 19.168V21.168C147.56 21.168 149.047 20.9066 150.423 20.3723L149.7 18.5077ZM145.974 19.32C147.263 19.32 148.472 19.1048 149.59 18.6617L148.853 16.8023C147.993 17.1432 147.037 17.32 145.974 17.32V19.32ZM149.599 18.6581C150.723 18.2001 151.705 17.5587 152.533 16.7311L151.119 15.3169C150.49 15.9453 149.736 16.4426 148.844 16.8059L149.599 18.6581ZM152.533 16.7311C153.37 15.8936 154.022 14.9271 154.483 13.8376L152.641 13.0584C152.28 13.9102 151.774 14.6611 151.119 15.3169L152.533 16.7311ZM154.485 13.8314C154.951 12.7091 155.178 11.4946 155.178 10.2H153.178C153.178 11.2574 152.994 12.2082 152.638 13.0646L154.485 13.8314ZM155.178 10.2C155.178 8.90565 154.951 7.69783 154.483 6.59036L152.641 7.36964C152.994 8.2035 153.178 9.14235 153.178 10.2H155.178ZM154.485 6.59662C154.024 5.48578 153.37 4.51307 152.524 3.688L151.128 5.12C151.775 5.75093 152.278 6.49555 152.638 7.36338L154.485 6.59662ZM152.542 3.7059C151.71 2.85307 150.72 2.20583 149.584 1.76399L148.859 3.628C149.739 3.97017 150.485 4.4616 151.11 5.1021L152.542 3.7059ZM149.605 1.77241C148.483 1.30657 147.268 1.08 145.974 1.08V3.08C147.031 3.08 147.982 3.2641 148.838 3.61959L149.605 1.77241ZM145.974 1.08C144.679 1.08 143.458 1.30662 142.32 1.76991L143.075 3.62209C143.954 3.26404 144.917 3.08 145.974 3.08V1.08ZM142.335 1.76399C141.201 2.205 140.206 2.84976 139.359 3.69689L140.773 5.11111C141.419 4.4649 142.178 3.971 143.06 3.628L142.335 1.76399ZM139.359 3.69689C138.538 4.51796 137.889 5.48283 137.412 6.58191L139.247 7.37809C139.629 6.4985 140.138 5.74604 140.773 5.11111L139.359 3.69689ZM137.409 6.59036C136.94 7.69783 136.714 8.90565 136.714 10.2H138.714C138.714 9.14235 138.898 8.2035 139.251 7.36964L137.409 6.59036ZM136.714 10.2C136.714 11.4782 136.941 12.683 137.406 13.8034L139.253 13.0366C138.897 12.1783 138.714 11.2364 138.714 10.2H136.714ZM137.412 13.8181C137.888 14.915 138.534 15.8855 139.35 16.7221L140.782 15.3259C140.141 14.6692 139.63 13.9037 139.247 13.0219L137.412 13.8181ZM139.368 16.74C140.211 17.562 141.198 18.2009 142.32 18.6581L143.075 16.8059C142.181 16.4418 141.414 15.942 140.764 15.308L139.368 16.74ZM142.335 18.664C143.469 19.1047 144.685 19.32 145.974 19.32V17.32C144.911 17.32 143.943 17.1433 143.06 16.8L142.335 18.664ZM160.486 20H159.486V21H160.486V20ZM160.486 0.399999V-0.600001H159.486V0.399999H160.486ZM162.194 0.399999L162.977 -0.222023L162.677 -0.600001H162.194V0.399999ZM175.718 17.424V18.424H177.79L176.501 16.802L175.718 17.424ZM174.822 17.424H173.822V18.424H174.822V17.424ZM174.822 0.399999V-0.600001H173.822V0.399999H174.822ZM176.866 0.399999H177.866V-0.600001H176.866V0.399999ZM176.866 20V21H177.866V20H176.866ZM175.158 20L174.374 20.6212L174.675 21H175.158V20ZM161.662 2.976V1.976H159.593L160.878 3.59723L161.662 2.976ZM162.558 2.976H163.558V1.976H162.558V2.976ZM162.558 20V21H163.558V20H162.558ZM161.486 20V0.399999H159.486V20H161.486ZM160.486 1.4H162.194V-0.600001H160.486V1.4ZM161.411 1.02202L174.935 18.046L176.501 16.802L162.977 -0.222023L161.411 1.02202ZM175.718 16.424H174.822V18.424H175.718V16.424ZM175.822 17.424V0.399999H173.822V17.424H175.822ZM174.822 1.4H176.866V-0.600001H174.822V1.4ZM175.866 0.399999V20H177.866V0.399999H175.866ZM176.866 19H175.158V21H176.866V19ZM175.942 19.3788L162.446 2.35477L160.878 3.59723L174.374 20.6212L175.942 19.3788ZM161.662 3.976H162.558V1.976H161.662V3.976ZM161.558 2.976V20H163.558V2.976H161.558ZM162.558 19H160.486V21H162.558V19Z" fill="black" fill-opacity="0.2"/>
<defs>
<linearGradient id="paint0_linear_525_4700" x1="88.5" y1="0" x2="88.5" y2="20" gradientUnits="userSpaceOnUse">
<stop offset="0.390625" stop-color="#D08EFF" stop-opacity="0.41"/>
<stop offset="0.59375"/>
</linearGradient>
<linearGradient id="paint1_linear_525_4700" x1="88.5" y1="0" x2="88.5" y2="20" gradientUnits="userSpaceOnUse">
<stop offset="0.054898"/>
<stop offset="0.476798" stop-color="white"/>
<stop offset="0.971619" stop-color="#9F14C1" stop-opacity="0"/>
</linearGradient>
<linearGradient id="paint2_linear_525_4700" x1="88.5" y1="0" x2="88.5" y2="20" gradientUnits="userSpaceOnUse">
<stop offset="0.179905" stop-color="#BD2DCA"/>
<stop offset="0.419503" stop-color="#F2E7E7" stop-opacity="0"/>
</linearGradient>
</defs>
</svg>
